<svg width="43" height="74" viewBox="0 0 43 74" fill="none" xmlns="http://www.w3.org/2000/svg">
<path fill-rule="evenodd" clip-rule="evenodd" d="M23.3069 22.3763C24.7791 17.8679 28.8077 9.42067 34.7701 13.6104C38.5636 16.2769 41.0155 22.4101 39.084 26.8383C36.6629 32.3881 30.0122 30.9733 25.7764 28.6921C24.5567 28.0359 23.3861 27.2767 22.2545 26.4485C22.5282 25.0728 22.8711 23.7111 23.3069 22.3763ZM0.0169324 0.283146C3.79738 10.3089 10.2317 20.2621 18.6703 27.2279C18.3153 29.6703 18.1639 32.0109 18.1444 33.9896C18.0321 45.4844 21.746 58.3603 28.2443 67.8854C28.9548 68.926 30.4206 68.5041 30.8966 67.5843C30.6921 68.1256 30.4809 68.6645 30.2629 69.201C28.8869 68.5764 27.6528 67.7558 26.5009 66.6884C25.7971 66.036 25.2381 65.1417 24.4968 64.5547C24.0554 64.2049 23.7206 64.4268 23.2915 63.9802C23.1546 63.8377 22.8698 63.9006 22.9031 64.135C22.9947 64.7767 22.6589 65.2093 22.7775 65.8473C22.9638 66.8523 24.0881 68.2313 24.7254 68.9668C26.3123 70.7986 28.3403 72.1377 30.5561 73.0837C31.4817 73.4785 32.4218 72.9815 32.8587 72.1416C33.93 70.0828 34.7093 67.8717 35.3357 65.6409C35.8779 63.708 36.619 61.5472 36.2872 59.5376C36.028 57.9619 33.9515 57.6672 33.2628 59.1096C32.422 60.8695 32.3483 62.974 31.8154 64.8544C31.587 65.6607 31.3149 66.4461 31.0276 67.2256C31.0787 66.9649 31.0543 66.6808 30.9219 66.3871C26.6429 56.8972 22.321 47.9932 21.6026 37.3981C21.4251 34.7958 21.4707 32.1672 21.7675 29.5694C21.9637 29.7061 22.1556 29.8527 22.3544 29.9874C28.8998 34.4031 40.3547 36.3515 42.6549 26.1987C44.2886 18.9927 37.9942 6.63969 29.1801 9.5952C23.5484 11.4834 20.6408 17.7179 19.2544 24.0242C16.7187 21.7845 14.3891 19.2716 12.193 16.8493C7.61397 11.8005 3.73676 6.06958 0.420529 0.124309C0.288834 -0.111311 -0.0849514 0.0135452 0.0169324 0.283146Z" fill="#175DE3"/>
</svg>
