<svg width="38" height="42" viewBox="0 0 38 42" fill="none" xmlns="http://www.w3.org/2000/svg">
<path fill-rule="evenodd" clip-rule="evenodd" d="M17.5144 10.5922C17.5728 7.37234 16.8617 1.07199 12.0718 2.52097C9.02402 3.44342 6.06676 6.88583 6.32305 10.1507C6.64446 14.2424 11.2578 14.7294 14.505 14.1488C15.4398 13.982 16.366 13.7385 17.2825 13.4421C17.4137 12.4966 17.4971 11.5455 17.5144 10.5922ZM37.5072 1.23498C32.8201 6.91015 26.4348 11.9798 19.4236 14.6993C19.1061 16.3504 18.6799 17.893 18.2495 19.1742C15.7482 26.6171 10.466 34.1459 4.13521 38.9257C3.4432 39.4479 2.59076 38.8669 2.48917 38.1731C2.50009 38.5655 2.5159 38.9578 2.53659 39.3499C3.56536 39.2365 4.54633 38.9667 5.52951 38.5202C6.13021 38.2473 6.69161 37.7878 7.30194 37.5649C7.66543 37.4321 7.83198 37.6458 8.2092 37.4479C8.32953 37.3847 8.49945 37.4853 8.42545 37.6296C8.22259 38.0245 8.34266 38.3744 8.12323 38.7612C7.7778 39.3707 6.74271 40.024 6.16637 40.3646C4.73099 41.2128 3.12104 41.6502 1.47781 41.7943C0.791478 41.8542 0.295399 41.3356 0.201217 40.7015C-0.0299028 39.147 -0.0382479 37.5559 0.056574 35.9841C0.139072 34.6224 0.144187 33.0717 0.808445 31.8445C1.32874 30.882 2.73614 31.129 2.85813 32.2049C3.00725 33.5179 2.58363 34.8917 2.50685 36.2176C2.47386 36.7861 2.47379 37.3503 2.48486 37.9139C2.51023 37.7349 2.58958 37.5567 2.7409 37.395C7.63004 32.1707 12.4157 27.3335 15.2522 20.6462C15.9495 19.004 16.5086 17.2977 16.8985 15.5585C16.7412 15.6055 16.5844 15.6596 16.4258 15.7047C11.2086 17.1768 3.37227 16.0228 4.15959 8.98551C4.7177 3.99049 11.5499 -2.65752 16.5822 1.10573C19.7976 3.51005 20.2801 8.14626 19.7637 12.5085C21.9033 11.5967 23.9709 10.4652 25.932 9.36411C30.0206 7.06939 33.8085 4.18667 37.282 1.0475C37.4199 0.923141 37.6334 1.08242 37.5072 1.23498Z" fill="#FFFAFA"/>
</svg>
