<svg width="57" height="62" viewBox="0 0 57 62" fill="none" xmlns="http://www.w3.org/2000/svg">
<path d="M57 61.4081V32.8533C57 31.669 56.035 30.6821 54.8288 30.6821H37.2836V21.9315H41.6699V24.5413C41.6699 25.5282 42.4594 26.3178 43.4244 26.3178H50.8592C51.8461 26.3178 52.6356 25.5282 52.6356 24.5633V6.16274C52.6356 5.17583 51.8461 4.38629 50.8811 4.38629H43.4463C42.4594 4.38629 41.6699 5.17583 41.6699 6.16274V8.77259H37.2836V2.0177C37.2836 0.899191 36.3844 0 35.2659 0H2.0177C0.899192 0 0 0.899191 0 2.0177V61.3643H4.34244V50.5082C4.34244 49.2581 5.35129 48.2492 6.60139 48.2492H30.6383C31.8884 48.2492 32.8973 49.2581 32.8973 50.5082V61.4081H30.7261V51.21C30.7261 50.7933 30.3971 50.4424 29.9584 50.4424H24.9581C24.5414 50.4424 24.1905 50.7714 24.1905 51.21V61.4081H17.5452H57ZM37.2836 54.8506V48.2492H40.5733C41.1874 48.2492 41.6699 48.7537 41.6699 49.3458V53.7321C41.6699 54.3462 41.1874 54.8287 40.5733 54.8506H37.2836ZM37.2836 43.8849V37.2835H40.5733C41.1874 37.2835 41.6699 37.7879 41.6699 38.3801V42.7664C41.6699 43.3805 41.1874 43.8629 40.5733 43.8849H37.2836ZM41.6699 19.7383H37.2836V10.9657H41.6699V19.7383ZM52.6356 38.3801V42.7664C52.6356 43.3805 52.1531 43.8629 51.5391 43.8849H47.1089C46.4948 43.8849 46.0123 43.3805 46.0123 42.7883V38.3801C46.0123 37.766 46.5167 37.2835 47.1089 37.2835H51.5391C52.1531 37.2835 52.6356 37.7879 52.6356 38.3801ZM52.6356 49.3458V53.7321C52.6356 54.3462 52.1531 54.8287 51.5391 54.8506H47.1089C46.4948 54.8506 46.0123 54.3462 46.0123 53.754V49.3458C46.0123 48.7317 46.5167 48.2492 47.1089 48.2492H51.5391C52.1531 48.2492 52.6356 48.7537 52.6356 49.3458ZM21.9534 5.48287V9.86916C21.9534 10.4832 21.471 10.9657 20.8569 10.9657H16.4267C15.8126 10.9657 15.3301 10.4613 15.3301 9.86916V5.48287C15.3301 4.86879 15.8346 4.38629 16.4267 4.38629H20.8569C21.471 4.38629 21.9534 4.89072 21.9534 5.48287ZM21.9534 20.8349C21.9534 21.449 21.471 21.9315 20.8569 21.9315H16.4267C15.8126 21.9315 15.3301 21.427 15.3301 20.8349V16.4486C15.3301 15.8345 15.8346 15.352 16.4267 15.352H20.8569C21.471 15.352 21.9534 15.8565 21.9534 16.4486V20.8349ZM21.9534 27.4143V31.8006C21.9534 32.4147 21.471 32.8972 20.8569 32.9191H16.4267C15.8126 32.9191 15.3301 32.4147 15.3301 31.8226V27.4143C15.3301 26.8003 15.8346 26.3178 16.4267 26.3178H20.8569C21.471 26.3178 21.9534 26.8222 21.9534 27.4143ZM21.9534 38.3801V42.7664C21.9534 43.3805 21.471 43.8629 20.8569 43.8849H16.4267C15.8126 43.8849 15.3301 43.3805 15.3301 42.7883V38.3801C15.3301 37.766 15.8346 37.2835 16.4267 37.2835H20.8569C21.471 37.2835 21.9534 37.7879 21.9534 38.3801ZM32.9411 42.7664C32.9411 43.3805 32.4367 43.8629 31.8446 43.8849H27.4144C26.8003 43.8849 26.3178 43.3805 26.3178 42.7883V38.3801C26.3178 37.766 26.8222 37.2835 27.4144 37.2835H31.8446C32.4586 37.2835 32.9411 37.7879 32.9411 38.3801V42.7664ZM32.9411 27.4143V31.8006C32.9411 32.4147 32.4367 32.8972 31.8446 32.9191H27.4144C26.8003 32.9191 26.3178 32.4147 26.3178 31.8226V27.4143C26.3178 26.8003 26.8222 26.3178 27.4144 26.3178H31.8446C32.4586 26.3178 32.9411 26.8222 32.9411 27.4143ZM32.9411 20.8349C32.9411 21.449 32.4367 21.9315 31.8446 21.9315H27.4144C26.8003 21.9315 26.3178 21.427 26.3178 20.8349V16.4486C26.3178 15.8345 26.8003 15.352 27.4144 15.352H31.8446C32.4586 15.352 32.9411 15.8565 32.9411 16.4486V20.8349ZM32.9411 5.48287V9.86916C32.9411 10.4832 32.4367 10.9657 31.8446 10.9657H27.4144C26.8003 10.9657 26.3178 10.4832 26.3178 9.86916V5.48287C26.3178 4.86879 26.8003 4.38629 27.4144 4.38629H31.8446C32.4586 4.38629 32.9411 4.89072 32.9411 5.48287ZM10.9877 42.7664C10.9877 43.3805 10.5052 43.8629 9.89111 43.8849H5.46095C4.84686 43.8849 4.36437 43.3805 4.36437 42.7883V38.3801C4.36437 37.766 4.8688 37.2835 5.46095 37.2835H9.89111C10.5052 37.2835 10.9877 37.7879 10.9877 38.3801V42.7664ZM10.9877 27.4143V31.8006C10.9877 32.4147 10.5052 32.8972 9.89111 32.9191H5.46095C4.84686 32.9191 4.36437 32.4147 4.36437 31.8226V27.4143C4.36437 26.8003 4.8688 26.3178 5.46095 26.3178H9.89111C10.5052 26.3178 10.9877 26.8222 10.9877 27.4143ZM10.9877 20.8349C10.9877 21.449 10.5052 21.9315 9.89111 21.9315H5.46095C4.84686 21.9315 4.36437 21.427 4.36437 20.8349V16.4486C4.36437 15.8345 4.8688 15.352 5.46095 15.352H9.89111C10.5052 15.352 10.9877 15.8565 10.9877 16.4486V20.8349ZM10.9877 5.48287V9.86916C10.9877 10.4832 10.5052 10.9657 9.89111 10.9657H5.46095C4.84686 10.9657 4.36437 10.4613 4.36437 9.86916V5.48287C4.36437 4.86879 4.8688 4.38629 5.46095 4.38629H9.89111C10.5052 4.38629 10.9877 4.89072 10.9877 5.48287Z" fill="#FFFAFA"/>
<path d="M21.9302 61.4081H15.3946V51.21C15.3946 50.7714 15.7455 50.4424 16.1622 50.4424H21.1626C21.5793 50.4424 21.9302 50.7714 21.9302 51.21V61.4081ZM13.1137 51.21V61.4081H6.57812V51.21C6.57812 50.7714 6.9071 50.4424 7.34573 50.4424H12.3461C12.7847 50.4424 13.1137 50.7933 13.1137 51.21Z" fill="#FFFAFA"/>
</svg>
