<svg width="34" height="26" viewBox="0 0 34 26" fill="none" xmlns="http://www.w3.org/2000/svg">
<path d="M1.25 23.4688C0.416667 22.2812 0 20.5833 0 18.375C0 16.3333 0.333333 14.0833 1 11.625C1.6875 9.14583 2.5625 6.85417 3.625 4.75C4.70833 2.64583 5.80208 1.0625 6.90625 0H13.875L15.8438 0.59375C15.0938 1.55208 14.2292 2.79167 13.25 4.3125C12.2917 5.83333 11.5417 7.13542 11 8.21875C13.9375 9.19792 15.4062 12.1458 15.4062 17.0625C15.4062 18.7917 15.2188 20.8542 14.8438 23.25C14.0521 24.0833 12.9792 24.7396 11.625 25.2188C10.2917 25.6771 8.89583 25.9062 7.4375 25.9062C6.08333 25.9062 4.84375 25.6979 3.71875 25.2812C2.61458 24.8646 1.79167 24.2604 1.25 23.4688ZM18.6875 23.4688C17.8542 22.2812 17.4375 20.5833 17.4375 18.375C17.4375 16.3333 17.7708 14.0833 18.4375 11.625C19.125 9.14583 20 6.85417 21.0625 4.75C22.1458 2.64583 23.2396 1.0625 24.3438 0H31.3125L33.2812 0.59375C32.5312 1.55208 31.6667 2.79167 30.6875 4.3125C29.7292 5.83333 28.9792 7.13542 28.4375 8.21875C31.375 9.19792 32.8438 12.1458 32.8438 17.0625C32.8438 18.7917 32.6562 20.8542 32.2812 23.25C31.4896 24.0833 30.4167 24.7396 29.0625 25.2188C27.7292 25.6771 26.3333 25.9062 24.875 25.9062C23.5208 25.9062 22.2812 25.6979 21.1562 25.2812C20.0521 24.8646 19.2292 24.2604 18.6875 23.4688Z" fill="#FA7719"/>
</svg>
