<svg width="1500" height="561" viewBox="0 0 1500 561" fill="none" xmlns="http://www.w3.org/2000/svg">
<g filter="url(#filter0_d_1109_29)">
<path d="M1467 73H162V528H1467V73Z" fill="#FFBA3B"/>
</g>
<g filter="url(#filter1_d_1109_29)">
<path d="M27 27H106.75H433H785.5C951.185 27 1085.5 161.315 1085.5 327V487C1085.5 509.091 1067.59 527 1045.5 527H27V27Z" fill="url(#paint0_radial_1109_29)"/>
</g>
<path d="M27 27H106.75H433H785.5C951.185 27 1085.5 161.315 1085.5 327V487C1085.5 509.091 1067.59 527 1045.5 527H433H106.75H27V27Z" fill="#175DE3" fill-opacity="0.2"/>
<path d="M1218.05 153.561C1218.05 148.488 1226.06 148.488 1226.06 153.561V204.292H1218.05V153.561Z" fill="#FFFAFA"/>
<path d="M1268.42 114.878C1268.42 114.878 1274.81 111.39 1278.93 112.341C1283.05 113.293 1278.93 115.512 1278.93 115.512C1278.93 115.512 1280.51 120.268 1278.93 119.951C1277.34 119.634 1272.46 121.793 1272.46 121.793L1234.17 144.164C1234.17 144.164 1225.34 147.536 1225.98 154.512C1226.24 157.354 1221.86 153.244 1221.86 153.244C1221.86 153.244 1218.05 154.775 1218.05 153.244C1218.05 142.146 1230.13 137.249 1230.13 137.249L1268.42 114.878Z" fill="#FFFAFA"/>
<path d="M1338 153.688C1338 148.615 1329.99 148.614 1329.99 153.688V203.024L1338 203.658L1338 153.688Z" fill="#FFFAFA"/>
<path d="M1287.63 115.004L1283.59 121.92L1293.16 127.513L1302.73 133.105L1321.88 144.291C1321.88 144.291 1330.07 148.17 1330.07 154.638C1330.07 160.219 1334.2 153.37 1334.2 153.37C1334.2 153.37 1338 154.902 1338 153.37C1338 143.097 1325.92 137.375 1325.92 137.375L1306.77 126.19L1297.2 120.597L1287.63 115.004Z" fill="#FFFAFA"/>
<path d="M1245.79 176.866C1245.79 176.093 1246.63 175.613 1247.29 176.003L1285.97 198.645C1286.64 199.038 1286.63 200.011 1285.94 200.385L1280.56 203.341C1280.25 203.511 1279.87 203.505 1279.57 203.325L1246.28 183.617C1245.97 183.437 1245.79 183.11 1245.79 182.756L1245.79 176.866Z" fill="#FFFAFA"/>
<path d="M1245.79 206.491C1245.48 206.309 1245.29 205.978 1245.3 205.622L1245.34 199.611C1245.35 198.842 1246.19 198.368 1246.85 198.756L1272.65 213.861L1269.1 220.292L1245.79 206.491Z" fill="#FFFAFA"/>
<path d="M1294.4 118.963L1290.36 125.876L1286.25 123.476L1284.2 122.276L1282.14 121.076C1282.14 121.076 1279.25 119.634 1277.66 119.951C1275.7 120.343 1275.12 115.512 1275.12 115.512C1275.12 115.512 1274.81 112.976 1277.66 112.342C1280.51 111.707 1286.18 114.164 1286.18 114.164L1294.4 118.963Z" fill="#FFFAFA"/>
<path d="M1268.42 241.296C1268.42 241.296 1274.81 244.784 1278.93 243.833C1283.05 242.881 1278.93 240.662 1278.93 240.662C1278.93 240.662 1280.51 235.906 1278.93 236.223C1277.34 236.54 1272.46 234.381 1272.46 234.381L1234.17 212.01C1234.17 212.01 1225.34 208.638 1225.98 201.662C1226.24 198.82 1221.86 202.93 1221.86 202.93C1221.86 202.93 1218.05 201.399 1218.05 202.93C1218.05 214.028 1230.13 218.925 1230.13 218.925L1268.42 241.296Z" fill="#FFFAFA"/>
<path d="M1287.63 241.169L1283.59 234.253L1293.16 228.661L1302.73 223.068L1321.88 211.883C1321.88 211.883 1330.53 207.463 1329.98 201.438C1329.72 198.596 1334.2 202.803 1334.2 202.803C1334.2 202.803 1338 201.272 1338 202.803C1338 212.536 1325.92 218.798 1325.92 218.798L1306.77 229.983L1297.2 235.576L1287.63 241.169Z" fill="#FFFAFA"/>
<path d="M1294.4 237.211L1290.36 230.298L1286.25 232.698L1284.2 233.898L1282.14 235.097C1282.14 235.097 1279.25 236.54 1277.66 236.223C1275.7 235.831 1275.12 240.662 1275.12 240.662C1275.12 240.662 1274.81 243.198 1277.66 243.832C1280.51 244.466 1286.18 242.01 1286.18 242.01L1294.4 237.211Z" fill="#FFFAFA"/>
<path d="M1301.83 202.422C1301.83 202.422 1302.71 201.756 1302.71 198.585C1302.71 195.414 1306.2 198.585 1306.2 198.585C1306.2 198.585 1309.37 190.975 1310 198.585C1310.64 206.195 1305.49 208.693 1305.49 208.693L1284.57 220.908C1284.57 220.908 1282.24 222.365 1277.03 222.366C1271.81 222.366 1277.03 219.512 1277.03 219.512C1277.03 219.512 1275.12 215.073 1277.03 215.39C1278.93 215.707 1280.91 214.637 1280.91 214.637L1301.83 202.422Z" fill="#FFFAFA"/>
<path d="M1301.83 202.422C1301.83 202.422 1302.71 201.756 1302.71 198.585C1302.71 195.414 1306.2 198.585 1306.2 198.585C1306.2 198.585 1309.37 190.975 1310 198.585C1310.64 206.195 1305.49 208.693 1305.49 208.693L1284.57 220.908C1284.57 220.908 1282.24 222.365 1277.03 222.366C1271.81 222.366 1277.03 219.512 1277.03 219.512C1277.03 219.512 1275.12 215.073 1277.03 215.39C1278.93 215.707 1280.91 214.637 1280.91 214.637L1301.83 202.422Z" fill="#FFFAFA"/>
<path d="M1267.36 210.712L1274.46 214.912C1274.46 214.912 1275.13 215.39 1277.98 215.39C1279.32 215.39 1277.66 219.195 1277.66 219.195C1277.66 219.195 1279.88 222.365 1277.66 222.365C1272.56 222.365 1270.71 221.241 1270.71 221.241L1263.62 217.041L1267.36 210.712Z" fill="#FFFAFA"/>
<path d="M1267.36 210.712L1274.46 214.912C1274.46 214.912 1275.13 215.39 1277.98 215.39C1279.32 215.39 1277.66 219.195 1277.66 219.195C1277.66 219.195 1279.88 222.365 1277.66 222.365C1272.56 222.365 1270.71 221.241 1270.71 221.241L1263.62 217.041L1267.36 210.712Z" fill="#FFFAFA"/>
<path d="M1254.73 160.536L1304.12 189.781C1304.12 189.781 1310 192.243 1310 198.585C1310 204.926 1306.2 198.585 1306.2 198.585C1306.2 198.585 1302.71 200.289 1302.71 198.585C1302.71 197.317 1300.42 196.029 1300.42 196.029L1251.03 166.784L1254.73 160.536Z" fill="#FFFAFA"/>
<path d="M1254.73 160.537L1304.12 189.782C1304.12 189.782 1310 192.244 1310 198.585C1310 204.927 1306.2 198.585 1306.2 198.585C1306.2 198.585 1302.71 200.289 1302.71 198.585C1302.71 197.317 1300.42 196.03 1300.42 196.03L1251.03 166.785C1251.03 166.785 1245.95 164.342 1245.95 158.634C1245.95 152.927 1249.44 158.634 1249.44 158.634C1249.44 158.634 1253.25 157.683 1253.25 158.634C1253.25 159.585 1254.73 160.537 1254.73 160.537Z" fill="#FFFAFA"/>
<path d="M1309.75 152.145C1310.05 152.325 1310.24 152.654 1310.24 153.008L1310.22 158.942C1310.22 159.713 1309.38 160.191 1308.72 159.802L1282.92 144.7L1286.43 138.341L1309.75 152.145Z" fill="#FFFAFA"/>
<path d="M1253.74 156.265C1253.74 156.265 1253.25 157.166 1253.25 158.634C1253.25 158.634 1246.59 167.712 1245.96 160.102C1245.32 152.493 1250.08 149.994 1250.08 149.994L1271 137.779C1271 137.779 1273.33 136.322 1278.55 136.322C1283.76 136.322 1278.55 139.176 1278.55 139.176C1278.55 139.176 1280.45 143.615 1278.55 143.297C1276.64 142.98 1274.66 144.05 1274.66 144.05L1253.74 156.265Z" fill="#FFFAFA"/>
<path d="M1288.21 147.975L1281.11 143.774C1281.11 143.774 1280.44 143.297 1277.59 143.297C1276.25 143.297 1277.91 139.492 1277.91 139.492C1277.91 139.492 1275.69 136.321 1277.91 136.321C1283.01 136.321 1284.86 137.446 1284.86 137.446L1291.95 141.646L1288.21 147.975Z" fill="#FFFAFA"/>
<defs>
<filter id="filter0_d_1109_29" x="135" y="46" width="1365" height="515" filterUnits="userSpaceOnUse" color-interpolation-filters="sRGB">
<feFlood flood-opacity="0" result="BackgroundImageFix"/>
<feColorMatrix in="SourceAlpha" type="matrix" values="0 0 0 0 0 0 0 0 0 0 0 0 0 0 0 0 0 0 127 0" result="hardAlpha"/>
<feOffset dx="3" dy="3"/>
<feGaussianBlur stdDeviation="15"/>
<feComposite in2="hardAlpha" operator="out"/>
<feColorMatrix type="matrix" values="0 0 0 0 0.0901961 0 0 0 0 0.364706 0 0 0 0 0.890196 0 0 0 0.25 0"/>
<feBlend mode="normal" in2="BackgroundImageFix" result="effect1_dropShadow_1109_29"/>
<feBlend mode="normal" in="SourceGraphic" in2="effect1_dropShadow_1109_29" result="shape"/>
</filter>
<filter id="filter1_d_1109_29" x="0" y="0" width="1118.5" height="560" filterUnits="userSpaceOnUse" color-interpolation-filters="sRGB">
<feFlood flood-opacity="0" result="BackgroundImageFix"/>
<feColorMatrix in="SourceAlpha" type="matrix" values="0 0 0 0 0 0 0 0 0 0 0 0 0 0 0 0 0 0 127 0" result="hardAlpha"/>
<feOffset dx="3" dy="3"/>
<feGaussianBlur stdDeviation="15"/>
<feComposite in2="hardAlpha" operator="out"/>
<feColorMatrix type="matrix" values="0 0 0 0 0.0901961 0 0 0 0 0.364706 0 0 0 0 0.890196 0 0 0 0.25 0"/>
<feBlend mode="normal" in2="BackgroundImageFix" result="effect1_dropShadow_1109_29"/>
<feBlend mode="normal" in="SourceGraphic" in2="effect1_dropShadow_1109_29" result="shape"/>
</filter>
<radialGradient id="paint0_radial_1109_29" cx="0" cy="0" r="1" gradientUnits="userSpaceOnUse" gradientTransform="translate(433 277) rotate(90) scale(250 652.5)">
<stop stop-color="#5A8EF0"/>
<stop offset="1" stop-color="#175DE3"/>
</radialGradient>
</defs>
</svg>
