<svg width="1500" height="888" viewBox="0 0 1500 888" fill="none" xmlns="http://www.w3.org/2000/svg">
<g filter="url(#filter0_d_1110_30)">
<path d="M1466.75 73H161.75V855H1466.75V73Z" fill="#FFBA3B"/>
</g>
<g filter="url(#filter1_d_1110_30)">
<path d="M27 27H106.712H432.808H785C950.685 27 1085 161.315 1085 327V815C1085 837.091 1067.09 855 1045 855H27V27Z" fill="url(#paint0_radial_1110_30)"/>
</g>
<path d="M27 27H106.712H432.808H785C950.685 27 1085 161.315 1085 327V815C1085 837.091 1067.09 855 1045 855H432.808H106.712H27V27Z" fill="#175DE3" fill-opacity="0.2"/>
<path d="M1217.8 153.561C1217.8 148.488 1225.81 148.488 1225.81 153.561V204.292H1217.8V153.561Z" fill="#FFFAFA"/>
<path d="M1268.17 114.878C1268.17 114.878 1274.56 111.39 1278.68 112.341C1282.8 113.293 1278.68 115.512 1278.68 115.512C1278.68 115.512 1280.26 120.268 1278.68 119.951C1277.09 119.634 1272.21 121.793 1272.21 121.793L1233.92 144.164C1233.92 144.164 1225.09 147.536 1225.73 154.512C1225.99 157.354 1221.61 153.244 1221.61 153.244C1221.61 153.244 1217.8 154.775 1217.8 153.244C1217.8 142.146 1229.88 137.249 1229.88 137.249L1268.17 114.878Z" fill="#FFFAFA"/>
<path d="M1337.75 153.688C1337.75 148.615 1329.74 148.614 1329.74 153.688V203.024L1337.75 203.658L1337.75 153.688Z" fill="#FFFAFA"/>
<path d="M1287.38 115.004L1283.34 121.92L1292.91 127.513L1302.48 133.105L1321.63 144.291C1321.63 144.291 1329.82 148.17 1329.82 154.638C1329.82 160.219 1333.95 153.37 1333.95 153.37C1333.95 153.37 1337.75 154.902 1337.75 153.37C1337.75 143.097 1325.67 137.375 1325.67 137.375L1306.52 126.19L1296.95 120.597L1287.38 115.004Z" fill="#FFFAFA"/>
<path d="M1245.54 176.866C1245.54 176.093 1246.38 175.613 1247.04 176.003L1285.72 198.645C1286.39 199.038 1286.38 200.011 1285.69 200.385L1280.31 203.341C1280 203.511 1279.62 203.505 1279.32 203.325L1246.03 183.617C1245.72 183.437 1245.54 183.11 1245.54 182.756L1245.54 176.866Z" fill="#FFFAFA"/>
<path d="M1245.54 206.491C1245.23 206.309 1245.04 205.978 1245.05 205.622L1245.09 199.611C1245.1 198.842 1245.94 198.368 1246.6 198.756L1272.4 213.861L1268.85 220.292L1245.54 206.491Z" fill="#FFFAFA"/>
<path d="M1294.15 118.963L1290.11 125.876L1286 123.476L1283.95 122.276L1281.89 121.076C1281.89 121.076 1279 119.634 1277.41 119.951C1275.45 120.343 1274.87 115.512 1274.87 115.512C1274.87 115.512 1274.56 112.976 1277.41 112.342C1280.26 111.707 1285.93 114.164 1285.93 114.164L1294.15 118.963Z" fill="#FFFAFA"/>
<path d="M1268.17 241.296C1268.17 241.296 1274.56 244.784 1278.68 243.833C1282.8 242.881 1278.68 240.662 1278.68 240.662C1278.68 240.662 1280.26 235.906 1278.68 236.223C1277.09 236.54 1272.21 234.381 1272.21 234.381L1233.92 212.01C1233.92 212.01 1225.09 208.638 1225.73 201.662C1225.99 198.82 1221.61 202.93 1221.61 202.93C1221.61 202.93 1217.8 201.399 1217.8 202.93C1217.8 214.028 1229.88 218.925 1229.88 218.925L1268.17 241.296Z" fill="#FFFAFA"/>
<path d="M1287.38 241.169L1283.34 234.253L1292.91 228.661L1302.48 223.068L1321.63 211.883C1321.63 211.883 1330.28 207.463 1329.73 201.438C1329.47 198.596 1333.95 202.803 1333.95 202.803C1333.95 202.803 1337.75 201.272 1337.75 202.803C1337.75 212.536 1325.67 218.798 1325.67 218.798L1306.52 229.983L1296.95 235.576L1287.38 241.169Z" fill="#FFFAFA"/>
<path d="M1294.15 237.211L1290.11 230.298L1286 232.698L1283.95 233.898L1281.89 235.097C1281.89 235.097 1279 236.54 1277.41 236.223C1275.45 235.831 1274.87 240.662 1274.87 240.662C1274.87 240.662 1274.56 243.198 1277.41 243.832C1280.26 244.466 1285.93 242.01 1285.93 242.01L1294.15 237.211Z" fill="#FFFAFA"/>
<path d="M1301.58 202.422C1301.58 202.422 1302.46 201.756 1302.46 198.585C1302.46 195.414 1305.95 198.585 1305.95 198.585C1305.95 198.585 1309.12 190.975 1309.75 198.585C1310.39 206.195 1305.24 208.693 1305.24 208.693L1284.32 220.908C1284.32 220.908 1281.99 222.365 1276.78 222.366C1271.56 222.366 1276.78 219.512 1276.78 219.512C1276.78 219.512 1274.87 215.073 1276.78 215.39C1278.68 215.707 1280.66 214.637 1280.66 214.637L1301.58 202.422Z" fill="#FFFAFA"/>
<path d="M1301.58 202.422C1301.58 202.422 1302.46 201.756 1302.46 198.585C1302.46 195.414 1305.95 198.585 1305.95 198.585C1305.95 198.585 1309.12 190.975 1309.75 198.585C1310.39 206.195 1305.24 208.693 1305.24 208.693L1284.32 220.908C1284.32 220.908 1281.99 222.365 1276.78 222.366C1271.56 222.366 1276.78 219.512 1276.78 219.512C1276.78 219.512 1274.87 215.073 1276.78 215.39C1278.68 215.707 1280.66 214.637 1280.66 214.637L1301.58 202.422Z" fill="#FFFAFA"/>
<path d="M1267.11 210.712L1274.21 214.912C1274.21 214.912 1274.88 215.39 1277.73 215.39C1279.07 215.39 1277.41 219.195 1277.41 219.195C1277.41 219.195 1279.63 222.365 1277.41 222.365C1272.31 222.365 1270.46 221.241 1270.46 221.241L1263.37 217.041L1267.11 210.712Z" fill="#FFFAFA"/>
<path d="M1267.11 210.712L1274.21 214.912C1274.21 214.912 1274.88 215.39 1277.73 215.39C1279.07 215.39 1277.41 219.195 1277.41 219.195C1277.41 219.195 1279.63 222.365 1277.41 222.365C1272.31 222.365 1270.46 221.241 1270.46 221.241L1263.37 217.041L1267.11 210.712Z" fill="#FFFAFA"/>
<path d="M1254.48 160.536L1303.87 189.781C1303.87 189.781 1309.75 192.243 1309.75 198.585C1309.75 204.926 1305.95 198.585 1305.95 198.585C1305.95 198.585 1302.46 200.289 1302.46 198.585C1302.46 197.317 1300.17 196.029 1300.17 196.029L1250.78 166.784L1254.48 160.536Z" fill="#FFFAFA"/>
<path d="M1254.48 160.537L1303.87 189.782C1303.87 189.782 1309.75 192.244 1309.75 198.585C1309.75 204.927 1305.95 198.585 1305.95 198.585C1305.95 198.585 1302.46 200.289 1302.46 198.585C1302.46 197.317 1300.17 196.03 1300.17 196.03L1250.78 166.785C1250.78 166.785 1245.7 164.342 1245.7 158.634C1245.7 152.927 1249.19 158.634 1249.19 158.634C1249.19 158.634 1253 157.683 1253 158.634C1253 159.585 1254.48 160.537 1254.48 160.537Z" fill="#FFFAFA"/>
<path d="M1309.5 152.145C1309.8 152.325 1309.99 152.654 1309.99 153.008L1309.97 158.942C1309.97 159.713 1309.13 160.191 1308.47 159.802L1282.67 144.7L1286.18 138.341L1309.5 152.145Z" fill="#FFFAFA"/>
<path d="M1253.49 156.265C1253.49 156.265 1253 157.166 1253 158.634C1253 158.634 1246.34 167.712 1245.71 160.102C1245.07 152.493 1249.83 149.994 1249.83 149.994L1270.75 137.779C1270.75 137.779 1273.08 136.322 1278.3 136.322C1283.51 136.322 1278.3 139.176 1278.3 139.176C1278.3 139.176 1280.2 143.615 1278.3 143.297C1276.39 142.98 1274.41 144.05 1274.41 144.05L1253.49 156.265Z" fill="#FFFAFA"/>
<path d="M1287.96 147.975L1280.86 143.774C1280.86 143.774 1280.19 143.297 1277.34 143.297C1276 143.297 1277.66 139.492 1277.66 139.492C1277.66 139.492 1275.44 136.321 1277.66 136.321C1282.76 136.321 1284.61 137.446 1284.61 137.446L1291.7 141.646L1287.96 147.975Z" fill="#FFFAFA"/>
<defs>
<filter id="filter0_d_1110_30" x="134.75" y="46" width="1365" height="842" filterUnits="userSpaceOnUse" color-interpolation-filters="sRGB">
<feFlood flood-opacity="0" result="BackgroundImageFix"/>
<feColorMatrix in="SourceAlpha" type="matrix" values="0 0 0 0 0 0 0 0 0 0 0 0 0 0 0 0 0 0 127 0" result="hardAlpha"/>
<feOffset dx="3" dy="3"/>
<feGaussianBlur stdDeviation="15"/>
<feComposite in2="hardAlpha" operator="out"/>
<feColorMatrix type="matrix" values="0 0 0 0 0.0901961 0 0 0 0 0.364706 0 0 0 0 0.890196 0 0 0 0.25 0"/>
<feBlend mode="normal" in2="BackgroundImageFix" result="effect1_dropShadow_1110_30"/>
<feBlend mode="normal" in="SourceGraphic" in2="effect1_dropShadow_1110_30" result="shape"/>
</filter>
<filter id="filter1_d_1110_30" x="0" y="0" width="1118" height="888" filterUnits="userSpaceOnUse" color-interpolation-filters="sRGB">
<feFlood flood-opacity="0" result="BackgroundImageFix"/>
<feColorMatrix in="SourceAlpha" type="matrix" values="0 0 0 0 0 0 0 0 0 0 0 0 0 0 0 0 0 0 127 0" result="hardAlpha"/>
<feOffset dx="3" dy="3"/>
<feGaussianBlur stdDeviation="15"/>
<feComposite in2="hardAlpha" operator="out"/>
<feColorMatrix type="matrix" values="0 0 0 0 0.0901961 0 0 0 0 0.364706 0 0 0 0 0.890196 0 0 0 0.25 0"/>
<feBlend mode="normal" in2="BackgroundImageFix" result="effect1_dropShadow_1110_30"/>
<feBlend mode="normal" in="SourceGraphic" in2="effect1_dropShadow_1110_30" result="shape"/>
</filter>
<radialGradient id="paint0_radial_1110_30" cx="0" cy="0" r="1" gradientUnits="userSpaceOnUse" gradientTransform="translate(432.808 441) rotate(90) scale(414 652.192)">
<stop stop-color="#5A8EF0"/>
<stop offset="1" stop-color="#175DE3"/>
</radialGradient>
</defs>
</svg>
