<svg width="674" height="374" viewBox="0 0 674 374" fill="none" xmlns="http://www.w3.org/2000/svg">
<circle cx="666.5" cy="7.5" r="7.5" transform="rotate(180 666.5 7.5)" fill="#175DE3"/>
<circle cx="7.5" cy="366.5" r="7.5" transform="rotate(180 7.5 366.5)" fill="#175DE3"/>
<line x1="217" y1="367" x2="14" y2="367" stroke="#175DE3" stroke-width="2" stroke-dasharray="25 19"/>
<path d="M239 367H291.827C340.117 367 379.265 327.756 379.265 279.346V262.263C379.265 223.287 410.783 191.692 449.662 191.692H463.63C494.795 191.692 520.06 217.019 520.06 248.261C520.06 279.503 545.324 304.83 576.489 304.83H593.53C634.106 304.83 667 271.855 667 231.178V110.093V12" stroke="#175DE3" stroke-width="2" stroke-dasharray="25 19"/>
<path d="M239 367H291.827C340.117 367 379.265 327.756 379.265 279.346V262.263C379.265 223.287 410.783 191.692 449.662 191.692H463.63C494.795 191.692 520.06 217.019 520.06 248.261C520.06 279.503 545.324 304.83 576.489 304.83H593.53C634.106 304.83 667 271.855 667 231.178V110.093V12" stroke="#175DE3" stroke-width="2" stroke-dasharray="25 19"/>
</svg>
