<svg width="180" height="124" viewBox="0 0 180 124" fill="none" xmlns="http://www.w3.org/2000/svg">
<path d="M0 76.5909V0H180V76.5909H144C140.686 76.5909 138 79.2772 138 82.5909V87.8644C138 93.2102 135.155 98.1519 130.532 100.836L98.8021 119.26C94.2685 121.892 88.6895 121.967 84.0873 119.457L49.8172 100.764C44.9983 98.1354 42 93.0847 42 87.5955V82.5909C42 79.2772 39.3137 76.5909 36 76.5909H0Z" fill="#FFFAFA"/>
<path d="M57.3105 54.5648C57.3105 51.7112 61.8156 51.7112 61.8156 54.5648V83.1006H57.3105V54.5648Z" fill="#175DE3"/>
<path d="M85.6455 32.8062C85.6455 32.8062 89.2367 30.8444 91.5552 31.3794C93.8737 31.9145 91.5552 33.1629 91.5552 33.1629C91.5552 33.1629 92.4469 35.8381 91.5552 35.6598C90.6635 35.4814 87.9182 36.696 87.9182 36.696L66.3812 49.2794C66.3812 49.2794 61.4146 51.1761 61.7713 55.0998C61.9166 56.6983 59.4528 54.3864 59.4528 54.3864C59.4528 54.3864 57.3127 55.2479 57.3127 54.3864C57.3127 48.1442 64.1085 45.3896 64.1085 45.3896L85.6455 32.8062Z" fill="#175DE3"/>
<path d="M124.781 54.6361C124.781 51.7824 120.276 51.7824 120.276 54.6361V82.3872L124.781 82.7439L124.781 54.6361Z" fill="#175DE3"/>
<path d="M96.447 32.8774L94.1743 36.7673L99.5585 39.9131L104.943 43.0589L115.711 49.3506C115.711 49.3506 120.321 51.5328 120.321 55.171C120.321 58.31 122.64 54.4576 122.64 54.4576C122.64 54.4576 124.78 55.3191 124.78 54.4576C124.78 48.6792 117.984 45.4608 117.984 45.4608L107.215 39.1691L101.831 36.0233L96.447 32.8774Z" fill="#175DE3"/>
<path d="M72.913 68.4367C72.913 67.6642 73.7516 67.1834 74.4182 67.5737L94.8478 79.5344C95.518 79.9268 95.5046 80.9002 94.8238 81.274L92.69 82.4456C92.3802 82.6157 92.0035 82.6096 91.6993 82.4295L73.4036 71.598C73.0995 71.418 72.913 71.0909 72.913 70.7375L72.913 68.4367Z" fill="#175DE3"/>
<path d="M73.1265 84.4655C72.82 84.2841 72.6332 83.9534 72.6359 83.5972L72.6545 81.2241C72.6604 80.4551 73.4959 79.9804 74.1596 80.3689L88.0222 88.4833L86.0231 92.1006L73.1265 84.4655Z" fill="#175DE3"/>
<path d="M100.254 35.1039L97.9818 38.9922L95.672 37.6424L94.5172 36.9676L93.3623 36.2927C93.3623 36.2927 91.7318 35.4815 90.84 35.6598C89.7388 35.8801 89.4133 33.163 89.4133 33.163C89.4133 33.163 89.2349 31.7362 90.84 31.3795C92.4452 31.0228 95.6344 32.4044 95.6344 32.4044L100.254 35.1039Z" fill="#175DE3"/>
<path d="M85.6455 103.915C85.6455 103.915 89.2367 105.876 91.5552 105.341C93.8737 104.806 91.5552 103.558 91.5552 103.558C91.5552 103.558 92.4469 100.883 91.5552 101.061C90.6635 101.239 87.9182 100.025 87.9182 100.025L66.3812 87.4414C66.3812 87.4414 61.4146 85.5447 61.7713 81.621C61.9166 80.0225 59.4528 82.3344 59.4528 82.3344C59.4528 82.3344 57.3127 81.4729 57.3127 82.3344C57.3127 88.5766 64.1085 91.3313 64.1085 91.3313L85.6455 103.915Z" fill="#175DE3"/>
<path d="M96.4473 103.843L94.1746 99.9535L99.5589 96.8077L104.943 93.6619L115.712 87.3702C115.712 87.3702 120.575 84.884 120.267 81.4954C120.122 79.8968 122.64 82.2632 122.64 82.2632C122.64 82.2632 124.78 81.4017 124.78 82.2632C124.78 87.7376 117.984 91.26 117.984 91.26L107.216 97.5517L101.832 100.698L96.4473 103.843Z" fill="#175DE3"/>
<path d="M100.254 101.617L97.9818 97.7287L95.672 99.0784L94.5172 99.7533L93.3623 100.428C93.3623 100.428 91.7318 101.239 90.84 101.061C89.7388 100.841 89.4133 103.558 89.4133 103.558C89.4133 103.558 89.2349 104.985 90.84 105.341C92.4452 105.698 95.6344 104.316 95.6344 104.316L100.254 101.617Z" fill="#175DE3"/>
<path d="M104.437 82.0488C104.437 82.0488 104.929 81.6738 104.93 79.8903C104.93 78.1068 106.891 79.8903 106.891 79.8903C106.891 79.8903 108.675 75.61 109.031 79.8903C109.388 84.1706 106.496 85.576 106.496 85.576L94.7286 92.4466C94.7286 92.4466 93.4148 93.2664 90.4833 93.2665C87.5517 93.2665 90.4833 91.6613 90.4833 91.6613C90.4833 91.6613 89.4134 89.1644 90.4833 89.3428C91.5532 89.5212 92.6692 88.9194 92.6692 88.9194L104.437 82.0488Z" fill="#175DE3"/>
<path d="M104.437 82.0488C104.437 82.0488 104.929 81.6738 104.93 79.8903C104.93 78.1068 106.891 79.8903 106.891 79.8903C106.891 79.8903 108.675 75.61 109.031 79.8903C109.388 84.1706 106.496 85.576 106.496 85.576L94.7286 92.4466C94.7286 92.4466 93.4148 93.2664 90.4833 93.2665C87.5517 93.2665 90.4833 91.6613 90.4833 91.6613C90.4833 91.6613 89.4134 89.1644 90.4833 89.3428C91.5532 89.5212 92.6692 88.9194 92.6692 88.9194L104.437 82.0488Z" fill="#175DE3"/>
<path d="M85.0466 86.7115L89.0366 89.0741C89.0366 89.0741 89.4123 89.3427 91.0174 89.3427C91.7704 89.3427 90.8391 91.4829 90.8391 91.4829C90.8391 91.4829 92.0875 93.2664 90.8391 93.2664C87.968 93.2664 86.9289 92.6339 86.9289 92.6339L82.9388 90.2713L85.0466 86.7115Z" fill="#175DE3"/>
<path d="M85.0466 86.7115L89.0366 89.0741C89.0366 89.0741 89.4123 89.3427 91.0174 89.3427C91.7704 89.3427 90.8391 91.4829 90.8391 91.4829C90.8391 91.4829 92.0875 93.2664 90.8391 93.2664C87.968 93.2664 86.9289 92.6339 86.9289 92.6339L82.9388 90.2713L85.0466 86.7115Z" fill="#175DE3"/>
<path d="M77.9401 58.4884L105.722 74.9385C105.722 74.9385 109.032 76.3233 109.032 79.8903C109.032 83.4572 106.892 79.8903 106.892 79.8903C106.892 79.8903 104.93 80.8486 104.93 79.8903C104.93 79.1769 103.641 78.4528 103.641 78.4528L75.8593 62.0028L77.9401 58.4884Z" fill="#175DE3"/>
<path d="M77.9382 58.4884L105.72 74.9385C105.72 74.9385 109.03 76.3233 109.03 79.8903C109.03 83.4572 106.89 79.8903 106.89 79.8903C106.89 79.8903 104.928 80.8486 104.928 79.8903C104.928 79.1769 103.639 78.4528 103.639 78.4528L75.8574 62.0028C75.8574 62.0028 73.004 60.6287 73.0038 57.4184C73.0036 54.2081 74.9656 57.4184 74.9656 57.4184C74.9656 57.4184 77.1058 56.8833 77.1058 57.4184C77.1057 57.9534 77.9382 58.4884 77.9382 58.4884Z" fill="#175DE3"/>
<path d="M108.675 53.6408C108.98 53.8213 109.166 54.1498 109.165 54.5041L109.159 56.8308C109.157 57.6021 108.319 58.0807 107.654 57.691L93.8001 49.5809L95.7752 46.004L108.675 53.6408Z" fill="#175DE3"/>
<path d="M77.3819 56.0858C77.3819 56.0858 77.106 56.5924 77.1059 57.4184C77.1059 57.4184 73.3605 62.5246 73.0039 58.2443C72.6474 53.9639 75.3226 52.5586 75.3226 52.5586L87.0903 45.688C87.0903 45.688 88.404 44.8681 91.3356 44.8681C94.2671 44.868 91.3356 46.4732 91.3356 46.4732C91.3356 46.4732 92.4055 48.9701 91.3356 48.7917C90.2657 48.6134 89.1496 49.2152 89.1496 49.2152L77.3819 56.0858Z" fill="#175DE3"/>
<path d="M96.7737 51.423L92.7837 49.0604C92.7837 49.0604 92.408 48.7918 90.8029 48.7918C90.0499 48.7918 90.9812 46.6516 90.9812 46.6516C90.9812 46.6516 89.7328 44.8681 90.9812 44.8681C93.8523 44.8681 94.8915 45.5006 94.8915 45.5006L98.8815 47.8632L96.7737 51.423Z" fill="#175DE3"/>
</svg>
