<svg width="165" height="178" viewBox="0 0 165 178" fill="none" xmlns="http://www.w3.org/2000/svg">
<g opacity="0.17">
<path d="M5.2168 57.4053C5.21679 50.8698 15.5349 50.8698 15.5349 57.4053V122.76H5.2168V57.4053Z" fill="#FFFAFA"/>
<path d="M70.1096 7.57207C70.1096 7.57207 78.3346 3.07896 83.6448 4.30436C88.9551 5.52976 83.6449 8.38898 83.6449 8.38898C83.6449 8.38898 85.6872 14.5159 83.6449 14.1075C81.6026 13.699 75.3147 16.4808 75.3147 16.4808L25.9878 45.2998C25.9878 45.2998 14.6125 49.6439 15.4295 58.6301C15.7623 62.2911 10.1195 56.9962 10.1195 56.9962C10.1195 56.9962 5.21778 58.9693 5.21778 56.9962C5.21774 42.7 20.7826 36.3911 20.7826 36.3911L70.1096 7.57207Z" fill="#FFFAFA"/>
<path d="M159.752 57.5684C159.752 51.0329 149.434 51.0329 149.434 57.5684V121.125L159.752 121.942L159.752 57.5684Z" fill="#FFFAFA"/>
<path d="M94.8488 7.73473L89.6437 16.6434L101.975 23.8482L114.307 31.0529L138.971 45.4625C138.971 45.4625 149.529 50.4602 149.529 58.7927C149.529 65.9818 154.839 57.1588 154.839 57.1588C154.839 57.1588 159.741 59.1319 159.741 57.1588C159.741 43.9248 144.176 36.5538 144.176 36.5538L119.512 22.1443L107.181 14.9395L94.8488 7.73473Z" fill="#FFFAFA"/>
<path d="M40.9451 86.9239C40.9451 86.1514 41.7837 85.6707 42.4503 86.061L93.1467 115.741C93.8169 116.133 93.8035 117.106 93.1227 117.48L85.5962 121.613C85.2863 121.783 84.9096 121.777 84.6054 121.597L41.4356 96.0399C41.1316 95.8599 40.9451 95.5328 40.9451 95.1795L40.9451 86.9239Z" fill="#FFFAFA"/>
<path d="M40.8026 125.506C40.4962 125.325 40.3093 124.994 40.3121 124.638L40.3777 116.23C40.3837 115.461 41.2192 114.987 41.8828 115.375L75.5577 135.086L70.9791 143.37L40.8026 125.506Z" fill="#FFFAFA"/>
<path d="M103.566 12.8342L98.3625 21.7394L93.0724 18.6481L90.4273 17.1025L87.7822 15.5569C87.7822 15.5569 84.0479 13.699 82.0055 14.1075C79.4832 14.612 78.7377 8.38902 78.7377 8.38902C78.7377 8.38902 78.3291 5.12131 82.0055 4.30438C85.6818 3.48745 92.9861 6.65179 92.9861 6.65179L103.566 12.8342Z" fill="#FFFAFA"/>
<path d="M70.1096 170.428C70.1096 170.428 78.3346 174.921 83.6448 173.696C88.9551 172.47 83.6449 169.611 83.6449 169.611C83.6449 169.611 85.6872 163.484 83.6449 163.893C81.6026 164.301 75.3147 161.519 75.3147 161.519L25.9878 132.7C25.9878 132.7 14.6125 128.356 15.4295 119.37C15.7623 115.709 10.1195 121.004 10.1195 121.004C10.1195 121.004 5.21778 119.031 5.21778 121.004C5.21774 135.3 20.7826 141.609 20.7826 141.609L70.1096 170.428Z" fill="#FFFAFA"/>
<path d="M94.8544 170.266L89.6493 161.357L101.981 154.152L114.313 146.948L138.976 132.538C138.976 132.538 150.115 126.844 149.41 119.083C149.077 115.422 154.845 120.842 154.845 120.842C154.845 120.842 159.746 118.869 159.746 120.842C159.746 133.38 144.181 141.447 144.181 141.447L119.518 155.856L107.186 163.061L94.8544 170.266Z" fill="#FFFAFA"/>
<path d="M103.566 165.166L98.3625 156.261L93.0724 159.352L90.4273 160.897L87.7822 162.443C87.7822 162.443 84.0479 164.301 82.0055 163.892C79.4832 163.388 78.7377 169.611 78.7377 169.611C78.7377 169.611 78.3291 172.879 82.0055 173.696C85.6818 174.513 92.9861 171.348 92.9861 171.348L103.566 165.166Z" fill="#FFFAFA"/>
<path d="M113.151 120.35C113.151 120.35 114.279 119.491 114.279 115.406C114.279 111.322 118.772 115.406 118.772 115.406C118.772 115.406 122.857 105.603 123.674 115.406C124.49 125.209 117.867 128.428 117.867 128.428L90.9153 144.164C90.9153 144.164 87.9063 146.041 81.1921 146.041C74.4779 146.041 81.1921 142.365 81.1921 142.365C81.1921 142.365 78.7416 136.647 81.1921 137.055C83.6426 137.464 86.1987 136.085 86.1987 136.085L113.151 120.35Z" fill="#FFFAFA"/>
<path d="M113.151 120.35C113.151 120.35 114.279 119.491 114.279 115.406C114.279 111.322 118.772 115.406 118.772 115.406C118.772 115.406 122.857 105.603 123.674 115.406C124.49 125.209 117.867 128.428 117.867 128.428L90.9153 144.164C90.9153 144.164 87.9063 146.041 81.1921 146.041C74.4779 146.041 81.1921 142.365 81.1921 142.365C81.1921 142.365 78.7416 136.647 81.1921 137.055C83.6426 137.464 86.1987 136.085 86.1987 136.085L113.151 120.35Z" fill="#FFFAFA"/>
<path d="M68.7432 131.028L77.8818 136.439C77.8818 136.439 78.7422 137.055 82.4185 137.055C84.143 137.055 82.01 141.956 82.01 141.956C82.01 141.956 84.8693 146.041 82.01 146.041C75.4343 146.041 73.0543 144.592 73.0543 144.592L63.9157 139.181L68.7432 131.028Z" fill="#FFFAFA"/>
<path d="M68.7432 131.028L77.8818 136.439C77.8818 136.439 78.7422 137.055 82.4185 137.055C84.143 137.055 82.01 141.956 82.01 141.956C82.01 141.956 84.8693 146.041 82.01 146.041C75.4343 146.041 73.0543 144.592 73.0543 144.592L63.9157 139.181L68.7432 131.028Z" fill="#FFFAFA"/>
<path d="M52.4638 66.3904L116.094 104.065C116.094 104.065 123.674 107.237 123.674 115.406C123.674 123.575 118.773 115.406 118.773 115.406C118.773 115.406 114.279 117.601 114.279 115.406C114.279 113.772 111.328 112.114 111.328 112.114L47.6979 74.4392L52.4638 66.3904Z" fill="#FFFAFA"/>
<path d="M52.4578 66.3901L116.088 104.065C116.088 104.065 123.668 107.237 123.668 115.406C123.668 123.575 118.767 115.406 118.767 115.406C118.767 115.406 114.273 117.601 114.273 115.406C114.273 113.772 111.322 112.114 111.322 112.114L47.692 74.4389C47.692 74.4389 41.1567 71.2918 41.1564 63.9394C41.156 56.587 45.6495 63.9394 45.6495 63.9394C45.6495 63.9394 50.5513 62.714 50.5512 63.9394C50.5512 65.1648 52.4578 66.3901 52.4578 66.3901Z" fill="#FFFAFA"/>
<path d="M123.493 55.665C123.798 55.8455 123.985 56.1739 123.984 56.5283L123.96 64.8381C123.958 65.6093 123.121 66.0879 122.455 65.6983L88.79 45.9909L93.3137 37.7988L123.493 55.665Z" fill="#FFFAFA"/>
<path d="M51.1907 60.8881C51.1907 60.8881 50.5586 62.0485 50.5585 63.9401C50.5585 63.9401 41.9802 75.6346 41.1636 65.8316C40.347 56.0286 46.4742 52.8099 46.4742 52.8099L73.4261 37.0745C73.4261 37.0745 76.4351 35.1968 83.1493 35.1968C89.8635 35.1967 83.1493 38.8729 83.1493 38.8729C83.1493 38.8729 85.5998 44.5915 83.1493 44.183C80.6988 43.7744 78.1427 45.1527 78.1427 45.1527L51.1907 60.8881Z" fill="#FFFAFA"/>
<path d="M95.6005 50.2088L86.462 44.798C86.462 44.798 85.6016 44.1827 81.9253 44.1827C80.2008 44.1827 82.3338 39.2812 82.3338 39.2812C82.3338 39.2812 79.4744 35.1965 82.3338 35.1965C88.9094 35.1965 91.2895 36.6451 91.2895 36.6451L100.428 42.0559L95.6005 50.2088Z" fill="#FFFAFA"/>
</g>
</svg>
