<svg width="344" height="362" viewBox="0 0 344 362" fill="none" xmlns="http://www.w3.org/2000/svg">
<g filter="url(#filter0_d_632_62)">
<g filter="url(#filter1_i_632_62)">
<path d="M75.1781 103.66C51.5341 132.258 53.2777 157.504 57.1979 172.567C61.0879 186.106 64.9585 195.233 68.0311 202.479L68.3583 203.227C70.067 207.31 70.6567 211.775 70.0666 216.162C69.4766 220.549 67.7282 224.699 65.0013 228.186L59.403 235.448C59.2168 235.69 59.1167 235.987 59.1186 236.293C59.1205 236.599 59.2243 236.895 59.4136 237.135L78.5654 261.399L63.4633 273.304L44.3247 249.048C41.4805 245.446 39.9207 240.997 39.893 236.407C39.8653 231.817 41.3712 227.349 44.1717 223.713L49.7593 216.454C50.4081 215.667 50.8339 214.722 50.9922 213.715C51.1505 212.708 51.0354 211.677 50.6591 210.73L50.3197 209.928C48.8707 206.516 40.7857 185.501 38.7499 177.412C35.7763 165.581 28.9229 131.805 47.0304 97.8149C68.1497 58.1738 111.054 37.3668 137.5 31.3745C165.714 24.9816 212.593 25.4445 248.737 52.1103C279.727 74.9756 288.1 108.396 290.521 120.375C292.645 127.858 293.942 150.985 294.106 154.688L294.147 155.569C294.215 156.585 294.553 157.565 295.128 158.405C295.703 159.246 296.493 159.917 297.416 160.348L305.584 164.48C314.009 168.744 318.448 178.193 316.367 187.406L309.564 217.54L290.805 213.307L297.604 183.152C297.672 182.855 297.64 182.543 297.512 182.266C297.384 181.989 297.168 181.763 296.896 181.623L288.728 177.492C284.765 175.521 281.398 172.53 278.974 168.825C276.551 165.121 275.159 160.838 274.94 156.417L274.902 155.604C274.551 147.741 274.107 137.827 271.787 123.955C268.831 108.673 259.522 85.1416 225.839 69.5331C190.467 53.1355 157.323 58.6516 144.347 61.5919C131.381 64.5297 100.051 73.6229 75.2019 103.666L75.1781 103.66Z" fill="url(#paint0_radial_632_62)"/>
<path d="M75.1781 103.66C51.5341 132.258 53.2777 157.504 57.1979 172.567C61.0879 186.106 64.9585 195.233 68.0311 202.479L68.3583 203.227C70.067 207.31 70.6567 211.775 70.0666 216.162C69.4766 220.549 67.7282 224.699 65.0013 228.186L59.403 235.448C59.2168 235.69 59.1167 235.987 59.1186 236.293C59.1205 236.599 59.2243 236.895 59.4136 237.135L78.5654 261.399L63.4633 273.304L44.3247 249.048C41.4805 245.446 39.9207 240.997 39.893 236.407C39.8653 231.817 41.3712 227.349 44.1717 223.713L49.7593 216.454C50.4081 215.667 50.8339 214.722 50.9922 213.715C51.1505 212.708 51.0354 211.677 50.6591 210.73L50.3197 209.928C48.8707 206.516 40.7857 185.501 38.7499 177.412C35.7763 165.581 28.9229 131.805 47.0304 97.8149C68.1497 58.1738 111.054 37.3668 137.5 31.3745C165.714 24.9816 212.593 25.4445 248.737 52.1103C279.727 74.9756 288.1 108.396 290.521 120.375C292.645 127.858 293.942 150.985 294.106 154.688L294.147 155.569C294.215 156.585 294.553 157.565 295.128 158.405C295.703 159.246 296.493 159.917 297.416 160.348L305.584 164.48C314.009 168.744 318.448 178.193 316.367 187.406L309.564 217.54L290.805 213.307L297.604 183.152C297.672 182.855 297.64 182.543 297.512 182.266C297.384 181.989 297.168 181.763 296.896 181.623L288.728 177.492C284.765 175.521 281.398 172.53 278.974 168.825C276.551 165.121 275.159 160.838 274.94 156.417L274.902 155.604C274.551 147.741 274.107 137.827 271.787 123.955C268.831 108.673 259.522 85.1416 225.839 69.5331C190.467 53.1355 157.323 58.6516 144.347 61.5919C131.381 64.5297 100.051 73.6229 75.2019 103.666L75.1781 103.66Z" fill="url(#paint1_radial_632_62)"/>
<path d="M75.1781 103.66C51.5341 132.258 53.2777 157.504 57.1979 172.567C61.0879 186.106 64.9585 195.233 68.0311 202.479L68.3583 203.227C70.067 207.31 70.6567 211.775 70.0666 216.162C69.4766 220.549 67.7282 224.699 65.0013 228.186L59.403 235.448C59.2168 235.69 59.1167 235.987 59.1186 236.293C59.1205 236.599 59.2243 236.895 59.4136 237.135L78.5654 261.399L63.4633 273.304L44.3247 249.048C41.4805 245.446 39.9207 240.997 39.893 236.407C39.8653 231.817 41.3712 227.349 44.1717 223.713L49.7593 216.454C50.4081 215.667 50.8339 214.722 50.9922 213.715C51.1505 212.708 51.0354 211.677 50.6591 210.73L50.3197 209.928C48.8707 206.516 40.7857 185.501 38.7499 177.412C35.7763 165.581 28.9229 131.805 47.0304 97.8149C68.1497 58.1738 111.054 37.3668 137.5 31.3745C165.714 24.9816 212.593 25.4445 248.737 52.1103C279.727 74.9756 288.1 108.396 290.521 120.375C292.645 127.858 293.942 150.985 294.106 154.688L294.147 155.569C294.215 156.585 294.553 157.565 295.128 158.405C295.703 159.246 296.493 159.917 297.416 160.348L305.584 164.48C314.009 168.744 318.448 178.193 316.367 187.406L309.564 217.54L290.805 213.307L297.604 183.152C297.672 182.855 297.64 182.543 297.512 182.266C297.384 181.989 297.168 181.763 296.896 181.623L288.728 177.492C284.765 175.521 281.398 172.53 278.974 168.825C276.551 165.121 275.159 160.838 274.94 156.417L274.902 155.604C274.551 147.741 274.107 137.827 271.787 123.955C268.831 108.673 259.522 85.1416 225.839 69.5331C190.467 53.1355 157.323 58.6516 144.347 61.5919C131.381 64.5297 100.051 73.6229 75.2019 103.666L75.1781 103.66Z" fill="url(#paint2_radial_632_62)"/>
<path d="M75.1781 103.66C51.5341 132.258 53.2777 157.504 57.1979 172.567C61.0879 186.106 64.9585 195.233 68.0311 202.479L68.3583 203.227C70.067 207.31 70.6567 211.775 70.0666 216.162C69.4766 220.549 67.7282 224.699 65.0013 228.186L59.403 235.448C59.2168 235.69 59.1167 235.987 59.1186 236.293C59.1205 236.599 59.2243 236.895 59.4136 237.135L78.5654 261.399L63.4633 273.304L44.3247 249.048C41.4805 245.446 39.9207 240.997 39.893 236.407C39.8653 231.817 41.3712 227.349 44.1717 223.713L49.7593 216.454C50.4081 215.667 50.8339 214.722 50.9922 213.715C51.1505 212.708 51.0354 211.677 50.6591 210.73L50.3197 209.928C48.8707 206.516 40.7857 185.501 38.7499 177.412C35.7763 165.581 28.9229 131.805 47.0304 97.8149C68.1497 58.1738 111.054 37.3668 137.5 31.3745C165.714 24.9816 212.593 25.4445 248.737 52.1103C279.727 74.9756 288.1 108.396 290.521 120.375C292.645 127.858 293.942 150.985 294.106 154.688L294.147 155.569C294.215 156.585 294.553 157.565 295.128 158.405C295.703 159.246 296.493 159.917 297.416 160.348L305.584 164.48C314.009 168.744 318.448 178.193 316.367 187.406L309.564 217.54L290.805 213.307L297.604 183.152C297.672 182.855 297.64 182.543 297.512 182.266C297.384 181.989 297.168 181.763 296.896 181.623L288.728 177.492C284.765 175.521 281.398 172.53 278.974 168.825C276.551 165.121 275.159 160.838 274.94 156.417L274.902 155.604C274.551 147.741 274.107 137.827 271.787 123.955C268.831 108.673 259.522 85.1416 225.839 69.5331C190.467 53.1355 157.323 58.6516 144.347 61.5919C131.381 64.5297 100.051 73.6229 75.2019 103.666L75.1781 103.66Z" fill="url(#paint3_radial_632_62)"/>
<path d="M75.1781 103.66C51.5341 132.258 53.2777 157.504 57.1979 172.567C61.0879 186.106 64.9585 195.233 68.0311 202.479L68.3583 203.227C70.067 207.31 70.6567 211.775 70.0666 216.162C69.4766 220.549 67.7282 224.699 65.0013 228.186L59.403 235.448C59.2168 235.69 59.1167 235.987 59.1186 236.293C59.1205 236.599 59.2243 236.895 59.4136 237.135L78.5654 261.399L63.4633 273.304L44.3247 249.048C41.4805 245.446 39.9207 240.997 39.893 236.407C39.8653 231.817 41.3712 227.349 44.1717 223.713L49.7593 216.454C50.4081 215.667 50.8339 214.722 50.9922 213.715C51.1505 212.708 51.0354 211.677 50.6591 210.73L50.3197 209.928C48.8707 206.516 40.7857 185.501 38.7499 177.412C35.7763 165.581 28.9229 131.805 47.0304 97.8149C68.1497 58.1738 111.054 37.3668 137.5 31.3745C165.714 24.9816 212.593 25.4445 248.737 52.1103C279.727 74.9756 288.1 108.396 290.521 120.375C292.645 127.858 293.942 150.985 294.106 154.688L294.147 155.569C294.215 156.585 294.553 157.565 295.128 158.405C295.703 159.246 296.493 159.917 297.416 160.348L305.584 164.48C314.009 168.744 318.448 178.193 316.367 187.406L309.564 217.54L290.805 213.307L297.604 183.152C297.672 182.855 297.64 182.543 297.512 182.266C297.384 181.989 297.168 181.763 296.896 181.623L288.728 177.492C284.765 175.521 281.398 172.53 278.974 168.825C276.551 165.121 275.159 160.838 274.94 156.417L274.902 155.604C274.551 147.741 274.107 137.827 271.787 123.955C268.831 108.673 259.522 85.1416 225.839 69.5331C190.467 53.1355 157.323 58.6516 144.347 61.5919C131.381 64.5297 100.051 73.6229 75.2019 103.666L75.1781 103.66Z" fill="url(#paint4_radial_632_62)"/>
<path d="M75.1781 103.66C51.5341 132.258 53.2777 157.504 57.1979 172.567C61.0879 186.106 64.9585 195.233 68.0311 202.479L68.3583 203.227C70.067 207.31 70.6567 211.775 70.0666 216.162C69.4766 220.549 67.7282 224.699 65.0013 228.186L59.403 235.448C59.2168 235.69 59.1167 235.987 59.1186 236.293C59.1205 236.599 59.2243 236.895 59.4136 237.135L78.5654 261.399L63.4633 273.304L44.3247 249.048C41.4805 245.446 39.9207 240.997 39.893 236.407C39.8653 231.817 41.3712 227.349 44.1717 223.713L49.7593 216.454C50.4081 215.667 50.8339 214.722 50.9922 213.715C51.1505 212.708 51.0354 211.677 50.6591 210.73L50.3197 209.928C48.8707 206.516 40.7857 185.501 38.7499 177.412C35.7763 165.581 28.9229 131.805 47.0304 97.8149C68.1497 58.1738 111.054 37.3668 137.5 31.3745C165.714 24.9816 212.593 25.4445 248.737 52.1103C279.727 74.9756 288.1 108.396 290.521 120.375C292.645 127.858 293.942 150.985 294.106 154.688L294.147 155.569C294.215 156.585 294.553 157.565 295.128 158.405C295.703 159.246 296.493 159.917 297.416 160.348L305.584 164.48C314.009 168.744 318.448 178.193 316.367 187.406L309.564 217.54L290.805 213.307L297.604 183.152C297.672 182.855 297.64 182.543 297.512 182.266C297.384 181.989 297.168 181.763 296.896 181.623L288.728 177.492C284.765 175.521 281.398 172.53 278.974 168.825C276.551 165.121 275.159 160.838 274.94 156.417L274.902 155.604C274.551 147.741 274.107 137.827 271.787 123.955C268.831 108.673 259.522 85.1416 225.839 69.5331C190.467 53.1355 157.323 58.6516 144.347 61.5919C131.381 64.5297 100.051 73.6229 75.2019 103.666L75.1781 103.66Z" fill="url(#paint5_linear_632_62)"/>
</g>
<path d="M55.7764 279.056C54.5047 276.825 54.0548 274.218 54.5047 271.69C54.9546 269.162 56.276 266.871 58.2393 265.216L89.283 238.996C90.2631 238.169 91.4121 237.567 92.6496 237.231C93.8871 236.896 95.183 236.835 96.4465 237.053C97.71 237.271 98.9105 237.763 99.9637 238.495C101.017 239.226 101.897 240.179 102.543 241.286L148.727 320.315C149.377 321.426 149.775 322.666 149.893 323.947C150.011 325.229 149.847 326.521 149.411 327.731C148.975 328.942 148.279 330.043 147.371 330.955C146.463 331.867 145.366 332.569 144.157 333.01L105.119 347.218C102.682 348.106 100.009 348.104 97.5734 347.21C95.138 346.317 93.0972 344.59 91.8125 342.336L55.7764 279.056Z" fill="url(#paint6_linear_632_62)"/>
<path d="M55.7764 279.056C54.5047 276.825 54.0548 274.218 54.5047 271.69C54.9546 269.162 56.276 266.871 58.2393 265.216L89.283 238.996C90.2631 238.169 91.4121 237.567 92.6496 237.231C93.8871 236.896 95.183 236.835 96.4465 237.053C97.71 237.271 98.9105 237.763 99.9637 238.495C101.017 239.226 101.897 240.179 102.543 241.286L148.727 320.315C149.377 321.426 149.775 322.666 149.893 323.947C150.011 325.229 149.847 326.521 149.411 327.731C148.975 328.942 148.279 330.043 147.371 330.955C146.463 331.867 145.366 332.569 144.157 333.01L105.119 347.218C102.682 348.106 100.009 348.104 97.5734 347.21C95.138 346.317 93.0972 344.59 91.8125 342.336L55.7764 279.056Z" fill="url(#paint7_linear_632_62)"/>
<path d="M55.7764 279.056C54.5047 276.825 54.0548 274.218 54.5047 271.69C54.9546 269.162 56.276 266.871 58.2393 265.216L89.283 238.996C90.2631 238.169 91.4121 237.567 92.6496 237.231C93.8871 236.896 95.183 236.835 96.4465 237.053C97.71 237.271 98.9105 237.763 99.9637 238.495C101.017 239.226 101.897 240.179 102.543 241.286L148.727 320.315C149.377 321.426 149.775 322.666 149.893 323.947C150.011 325.229 149.847 326.521 149.411 327.731C148.975 328.942 148.279 330.043 147.371 330.955C146.463 331.867 145.366 332.569 144.157 333.01L105.119 347.218C102.682 348.106 100.009 348.104 97.5734 347.21C95.138 346.317 93.0972 344.59 91.8125 342.336L55.7764 279.056Z" fill="url(#paint8_radial_632_62)"/>
<path d="M55.7764 279.056C54.5047 276.825 54.0548 274.218 54.5047 271.69C54.9546 269.162 56.276 266.871 58.2393 265.216L89.283 238.996C90.2631 238.169 91.4121 237.567 92.6496 237.231C93.8871 236.896 95.183 236.835 96.4465 237.053C97.71 237.271 98.9105 237.763 99.9637 238.495C101.017 239.226 101.897 240.179 102.543 241.286L148.727 320.315C149.377 321.426 149.775 322.666 149.893 323.947C150.011 325.229 149.847 326.521 149.411 327.731C148.975 328.942 148.279 330.043 147.371 330.955C146.463 331.867 145.366 332.569 144.157 333.01L105.119 347.218C102.682 348.106 100.009 348.104 97.5734 347.21C95.138 346.317 93.0972 344.59 91.8125 342.336L55.7764 279.056Z" fill="url(#paint9_linear_632_62)"/>
<path d="M55.7764 279.056C54.5047 276.825 54.0548 274.218 54.5047 271.69C54.9546 269.162 56.276 266.871 58.2393 265.216L89.283 238.996C90.2631 238.169 91.4121 237.567 92.6496 237.231C93.8871 236.896 95.183 236.835 96.4465 237.053C97.71 237.271 98.9105 237.763 99.9637 238.495C101.017 239.226 101.897 240.179 102.543 241.286L148.727 320.315C149.377 321.426 149.775 322.666 149.893 323.947C150.011 325.229 149.847 326.521 149.411 327.731C148.975 328.942 148.279 330.043 147.371 330.955C146.463 331.867 145.366 332.569 144.157 333.01L105.119 347.218C102.682 348.106 100.009 348.104 97.5734 347.21C95.138 346.317 93.0972 344.59 91.8125 342.336L55.7764 279.056Z" fill="url(#paint10_linear_632_62)"/>
<g filter="url(#filter2_i_632_62)">
<path d="M318.761 219.466C318.947 216.905 318.23 214.359 316.734 212.272C315.238 210.184 313.058 208.687 310.573 208.039L271.249 197.764C270.008 197.441 268.712 197.393 267.451 197.623C266.189 197.854 264.994 198.357 263.948 199.099C262.902 199.84 262.031 200.802 261.395 201.916C260.76 203.03 260.377 204.269 260.271 205.547L252.663 296.764C252.556 298.047 252.732 299.338 253.178 300.546C253.625 301.754 254.331 302.849 255.247 303.754C256.164 304.658 257.268 305.351 258.481 305.781C259.695 306.212 260.988 306.371 262.27 306.247L303.608 302.243C306.191 301.993 308.601 300.839 310.414 298.982C312.226 297.126 313.323 294.689 313.511 292.102L318.761 219.466Z" fill="url(#paint11_linear_632_62)"/>
<path d="M318.761 219.466C318.947 216.905 318.23 214.359 316.734 212.272C315.238 210.184 313.058 208.687 310.573 208.039L271.249 197.764C270.008 197.441 268.712 197.393 267.451 197.623C266.189 197.854 264.994 198.357 263.948 199.099C262.902 199.84 262.031 200.802 261.395 201.916C260.76 203.03 260.377 204.269 260.271 205.547L252.663 296.764C252.556 298.047 252.732 299.338 253.178 300.546C253.625 301.754 254.331 302.849 255.247 303.754C256.164 304.658 257.268 305.351 258.481 305.781C259.695 306.212 260.988 306.371 262.27 306.247L303.608 302.243C306.191 301.993 308.601 300.839 310.414 298.982C312.226 297.126 313.323 294.689 313.511 292.102L318.761 219.466Z" fill="url(#paint12_linear_632_62)"/>
<path d="M318.761 219.466C318.947 216.905 318.23 214.359 316.734 212.272C315.238 210.184 313.058 208.687 310.573 208.039L271.249 197.764C270.008 197.441 268.712 197.393 267.451 197.623C266.189 197.854 264.994 198.357 263.948 199.099C262.902 199.84 262.031 200.802 261.395 201.916C260.76 203.03 260.377 204.269 260.271 205.547L252.663 296.764C252.556 298.047 252.732 299.338 253.178 300.546C253.625 301.754 254.331 302.849 255.247 303.754C256.164 304.658 257.268 305.351 258.481 305.781C259.695 306.212 260.988 306.371 262.27 306.247L303.608 302.243C306.191 301.993 308.601 300.839 310.414 298.982C312.226 297.126 313.323 294.689 313.511 292.102L318.761 219.466Z" fill="url(#paint13_radial_632_62)"/>
<path d="M318.761 219.466C318.947 216.905 318.23 214.359 316.734 212.272C315.238 210.184 313.058 208.687 310.573 208.039L271.249 197.764C270.008 197.441 268.712 197.393 267.451 197.623C266.189 197.854 264.994 198.357 263.948 199.099C262.902 199.84 262.031 200.802 261.395 201.916C260.76 203.03 260.377 204.269 260.271 205.547L252.663 296.764C252.556 298.047 252.732 299.338 253.178 300.546C253.625 301.754 254.331 302.849 255.247 303.754C256.164 304.658 257.268 305.351 258.481 305.781C259.695 306.212 260.988 306.371 262.27 306.247L303.608 302.243C306.191 301.993 308.601 300.839 310.414 298.982C312.226 297.126 313.323 294.689 313.511 292.102L318.761 219.466Z" fill="url(#paint14_radial_632_62)"/>
</g>
<path d="M78.6106 243.217C78.0412 242.213 77.6752 241.107 77.5335 239.961C77.3918 238.815 77.4772 237.653 77.7847 236.54C78.0923 235.427 78.616 234.386 79.326 233.476C80.036 232.566 80.9183 231.804 81.9226 231.235L105.236 218.033C106.241 217.463 107.348 217.098 108.495 216.957C109.641 216.815 110.804 216.902 111.917 217.21C113.03 217.519 114.072 218.044 114.982 218.755C115.892 219.466 116.653 220.35 117.221 221.356L171.948 318.005C173.095 320.034 173.388 322.435 172.765 324.681C172.141 326.926 170.652 328.832 168.623 329.979L145.31 343.182C144.306 343.751 143.199 344.117 142.053 344.259C140.908 344.4 139.745 344.315 138.633 344.007C137.52 343.7 136.479 343.176 135.568 342.466C134.658 341.756 133.897 340.874 133.328 339.869L78.6106 243.217Z" fill="url(#paint15_linear_632_62)"/>
<path d="M78.6106 243.217C78.0412 242.213 77.6752 241.107 77.5335 239.961C77.3918 238.815 77.4772 237.653 77.7847 236.54C78.0923 235.427 78.616 234.386 79.326 233.476C80.036 232.566 80.9183 231.804 81.9226 231.235L105.236 218.033C106.241 217.463 107.348 217.098 108.495 216.957C109.641 216.815 110.804 216.902 111.917 217.21C113.03 217.519 114.072 218.044 114.982 218.755C115.892 219.466 116.653 220.35 117.221 221.356L171.948 318.005C173.095 320.034 173.388 322.435 172.765 324.681C172.141 326.926 170.652 328.832 168.623 329.979L145.31 343.182C144.306 343.751 143.199 344.117 142.053 344.259C140.908 344.4 139.745 344.315 138.633 344.007C137.52 343.7 136.479 343.176 135.568 342.466C134.658 341.756 133.897 340.874 133.328 339.869L78.6106 243.217Z" fill="url(#paint16_radial_632_62)"/>
<path d="M78.6106 243.217C78.0412 242.213 77.6752 241.107 77.5335 239.961C77.3918 238.815 77.4772 237.653 77.7847 236.54C78.0923 235.427 78.616 234.386 79.326 233.476C80.036 232.566 80.9183 231.804 81.9226 231.235L105.236 218.033C106.241 217.463 107.348 217.098 108.495 216.957C109.641 216.815 110.804 216.902 111.917 217.21C113.03 217.519 114.072 218.044 114.982 218.755C115.892 219.466 116.653 220.35 117.221 221.356L171.948 318.005C173.095 320.034 173.388 322.435 172.765 324.681C172.141 326.926 170.652 328.832 168.623 329.979L145.31 343.182C144.306 343.751 143.199 344.117 142.053 344.259C140.908 344.4 139.745 344.315 138.633 344.007C137.52 343.7 136.479 343.176 135.568 342.466C134.658 341.756 133.897 340.874 133.328 339.869L78.6106 243.217Z" fill="url(#paint17_radial_632_62)"/>
<path d="M78.6106 243.217C78.0412 242.213 77.6752 241.107 77.5335 239.961C77.3918 238.815 77.4772 237.653 77.7847 236.54C78.0923 235.427 78.616 234.386 79.326 233.476C80.036 232.566 80.9183 231.804 81.9226 231.235L105.236 218.033C106.241 217.463 107.348 217.098 108.495 216.957C109.641 216.815 110.804 216.902 111.917 217.21C113.03 217.519 114.072 218.044 114.982 218.755C115.892 219.466 116.653 220.35 117.221 221.356L171.948 318.005C173.095 320.034 173.388 322.435 172.765 324.681C172.141 326.926 170.652 328.832 168.623 329.979L145.31 343.182C144.306 343.751 143.199 344.117 142.053 344.259C140.908 344.4 139.745 344.315 138.633 344.007C137.52 343.7 136.479 343.176 135.568 342.466C134.658 341.756 133.897 340.874 133.328 339.869L78.6106 243.217Z" fill="url(#paint18_linear_632_62)"/>
<path d="M280.707 197.425C280.788 196.273 280.642 195.117 280.276 194.022C279.91 192.927 279.331 191.915 278.574 191.044C277.817 190.172 276.896 189.458 275.863 188.943C274.83 188.428 273.705 188.121 272.554 188.04L245.827 186.177C244.674 186.096 243.518 186.244 242.422 186.61C241.327 186.977 240.315 187.556 239.444 188.314C238.572 189.073 237.859 189.995 237.344 191.029C236.83 192.063 236.524 193.189 236.445 194.341L228.723 305.141C228.563 307.466 229.333 309.759 230.864 311.516C232.394 313.274 234.56 314.351 236.885 314.512L263.612 316.376C265.936 316.536 268.228 315.768 269.985 314.24C271.743 312.711 272.822 310.548 272.986 308.225L280.707 197.425Z" fill="url(#paint19_linear_632_62)"/>
<path d="M280.707 197.425C280.788 196.273 280.642 195.117 280.276 194.022C279.91 192.927 279.331 191.915 278.574 191.044C277.817 190.172 276.896 189.458 275.863 188.943C274.83 188.428 273.705 188.121 272.554 188.04L245.827 186.177C244.674 186.096 243.518 186.244 242.422 186.61C241.327 186.977 240.315 187.556 239.444 188.314C238.572 189.073 237.859 189.995 237.344 191.029C236.83 192.063 236.524 193.189 236.445 194.341L228.723 305.141C228.563 307.466 229.333 309.759 230.864 311.516C232.394 313.274 234.56 314.351 236.885 314.512L263.612 316.376C265.936 316.536 268.228 315.768 269.985 314.24C271.743 312.711 272.822 310.548 272.986 308.225L280.707 197.425Z" fill="url(#paint20_linear_632_62)"/>
<path d="M280.707 197.425C280.788 196.273 280.642 195.117 280.276 194.022C279.91 192.927 279.331 191.915 278.574 191.044C277.817 190.172 276.896 189.458 275.863 188.943C274.83 188.428 273.705 188.121 272.554 188.04L245.827 186.177C244.674 186.096 243.518 186.244 242.422 186.61C241.327 186.977 240.315 187.556 239.444 188.314C238.572 189.073 237.859 189.995 237.344 191.029C236.83 192.063 236.524 193.189 236.445 194.341L228.723 305.141C228.563 307.466 229.333 309.759 230.864 311.516C232.394 313.274 234.56 314.351 236.885 314.512L263.612 316.376C265.936 316.536 268.228 315.768 269.985 314.24C271.743 312.711 272.822 310.548 272.986 308.225L280.707 197.425Z" fill="url(#paint21_radial_632_62)"/>
<path d="M280.707 197.425C280.788 196.273 280.642 195.117 280.276 194.022C279.91 192.927 279.331 191.915 278.574 191.044C277.817 190.172 276.896 189.458 275.863 188.943C274.83 188.428 273.705 188.121 272.554 188.04L245.827 186.177C244.674 186.096 243.518 186.244 242.422 186.61C241.327 186.977 240.315 187.556 239.444 188.314C238.572 189.073 237.859 189.995 237.344 191.029C236.83 192.063 236.524 193.189 236.445 194.341L228.723 305.141C228.563 307.466 229.333 309.759 230.864 311.516C232.394 313.274 234.56 314.351 236.885 314.512L263.612 316.376C265.936 316.536 268.228 315.768 269.985 314.24C271.743 312.711 272.822 310.548 272.986 308.225L280.707 197.425Z" fill="url(#paint22_radial_632_62)"/>
<path d="M57.1877 172.569C53.2675 157.506 51.5239 132.26 75.1893 103.657C100.038 73.6143 131.358 64.5235 144.334 61.5832C157.311 58.6429 190.455 53.1269 225.826 69.5244C259.51 85.133 268.818 108.664 271.774 123.946C273.514 134.415 274.554 144.988 274.89 155.595L274.917 156.411C275.243 163.818 278.86 170.332 284.326 174.67L282.521 133.588C282.371 128.005 281.675 122.45 280.441 117.003C268.16 62.8047 205.807 30.7445 141.172 45.3902C76.5369 60.0358 34.0935 115.842 46.3718 170.03C47.4159 174.637 48.8311 179.093 50.5698 183.386L50.5483 183.39L67.7539 223.675C69.3114 220.505 70.1701 217.036 70.2717 213.505C70.3734 209.974 69.7158 206.462 68.3433 203.207L68.016 202.459C63.7454 192.74 60.1263 182.748 57.1829 172.548L57.1877 172.569Z" fill="url(#paint23_linear_632_62)"/>
<path d="M57.1877 172.569C53.2675 157.506 51.5239 132.26 75.1893 103.657C100.038 73.6143 131.358 64.5235 144.334 61.5832C157.311 58.6429 190.455 53.1269 225.826 69.5244C259.51 85.133 268.818 108.664 271.774 123.946C273.514 134.415 274.554 144.988 274.89 155.595L274.917 156.411C275.243 163.818 278.86 170.332 284.326 174.67L282.521 133.588C282.371 128.005 281.675 122.45 280.441 117.003C268.16 62.8047 205.807 30.7445 141.172 45.3902C76.5369 60.0358 34.0935 115.842 46.3718 170.03C47.4159 174.637 48.8311 179.093 50.5698 183.386L50.5483 183.39L67.7539 223.675C69.3114 220.505 70.1701 217.036 70.2717 213.505C70.3734 209.974 69.7158 206.462 68.3433 203.207L68.016 202.459C63.7454 192.74 60.1263 182.748 57.1829 172.548L57.1877 172.569Z" fill="url(#paint24_radial_632_62)"/>
<path d="M57.1877 172.569C53.2675 157.506 51.5239 132.26 75.1893 103.657C100.038 73.6143 131.358 64.5235 144.334 61.5832C157.311 58.6429 190.455 53.1269 225.826 69.5244C259.51 85.133 268.818 108.664 271.774 123.946C273.514 134.415 274.554 144.988 274.89 155.595L274.917 156.411C275.243 163.818 278.86 170.332 284.326 174.67L282.521 133.588C282.371 128.005 281.675 122.45 280.441 117.003C268.16 62.8047 205.807 30.7445 141.172 45.3902C76.5369 60.0358 34.0935 115.842 46.3718 170.03C47.4159 174.637 48.8311 179.093 50.5698 183.386L50.5483 183.39L67.7539 223.675C69.3114 220.505 70.1701 217.036 70.2717 213.505C70.3734 209.974 69.7158 206.462 68.3433 203.207L68.016 202.459C63.7454 192.74 60.1263 182.748 57.1829 172.548L57.1877 172.569Z" fill="url(#paint25_linear_632_62)"/>
<path d="M57.1877 172.569C53.2675 157.506 51.5239 132.26 75.1893 103.657C100.038 73.6143 131.358 64.5235 144.334 61.5832C157.311 58.6429 190.455 53.1269 225.826 69.5244C259.51 85.133 268.818 108.664 271.774 123.946C273.514 134.415 274.554 144.988 274.89 155.595L274.917 156.411C275.243 163.818 278.86 170.332 284.326 174.67L282.521 133.588C282.371 128.005 281.675 122.45 280.441 117.003C268.16 62.8047 205.807 30.7445 141.172 45.3902C76.5369 60.0358 34.0935 115.842 46.3718 170.03C47.4159 174.637 48.8311 179.093 50.5698 183.386L50.5483 183.39L67.7539 223.675C69.3114 220.505 70.1701 217.036 70.2717 213.505C70.3734 209.974 69.7158 206.462 68.3433 203.207L68.016 202.459C63.7454 192.74 60.1263 182.748 57.1829 172.548L57.1877 172.569Z" fill="url(#paint26_radial_632_62)"/>
<g filter="url(#filter3_f_632_62)">
<path d="M283.957 169.808C283.941 168.842 282.454 131.654 282.393 130.688C282.115 126.132 281.473 121.557 280.441 117.003C268.16 62.8044 205.807 30.7442 141.172 45.3899C76.5369 60.0356 34.0934 115.842 46.3718 170.029C47.4159 174.637 48.8311 179.093 50.5698 183.385L50.5483 183.39L66.1886 220.098" stroke="url(#paint27_linear_632_62)" stroke-width="0.2"/>
</g>
<g filter="url(#filter4_f_632_62)">
<path d="M290.264 153.565C290.167 156.122 291.011 161.687 295.071 163.494C299.119 165.302 301.636 166.614 302.407 167.036C306.107 168.451 313.046 173.818 311.107 183.901" stroke="#D1D1D3" stroke-width="0.6"/>
</g>
</g>
<defs>
<filter id="filter0_d_632_62" x="30.9746" y="27.9773" width="291.816" height="327.905" filterUnits="userSpaceOnUse" color-interpolation-filters="sRGB">
<feFlood flood-opacity="0" result="BackgroundImageFix"/>
<feColorMatrix in="SourceAlpha" type="matrix" values="0 0 0 0 0 0 0 0 0 0 0 0 0 0 0 0 0 0 127 0" result="hardAlpha"/>
<feOffset dy="4"/>
<feGaussianBlur stdDeviation="2"/>
<feComposite in2="hardAlpha" operator="out"/>
<feColorMatrix type="matrix" values="0 0 0 0 0 0 0 0 0 0 0 0 0 0 0 0 0 0 0.25 0"/>
<feBlend mode="normal" in2="BackgroundImageFix" result="effect1_dropShadow_632_62"/>
<feBlend mode="normal" in="SourceGraphic" in2="effect1_dropShadow_632_62" result="shape"/>
</filter>
<filter id="filter1_i_632_62" x="34.9746" y="27.4773" width="282.4" height="245.826" filterUnits="userSpaceOnUse" color-interpolation-filters="sRGB">
<feFlood flood-opacity="0" result="BackgroundImageFix"/>
<feBlend mode="normal" in="SourceGraphic" in2="BackgroundImageFix" result="shape"/>
<feColorMatrix in="SourceAlpha" type="matrix" values="0 0 0 0 0 0 0 0 0 0 0 0 0 0 0 0 0 0 127 0" result="hardAlpha"/>
<feOffset dx="0.5" dy="-0.5"/>
<feGaussianBlur stdDeviation="0.5"/>
<feComposite in2="hardAlpha" operator="arithmetic" k2="-1" k3="1"/>
<feColorMatrix type="matrix" values="0 0 0 0 0.52549 0 0 0 0 0.513726 0 0 0 0 0.541176 0 0 0 1 0"/>
<feBlend mode="normal" in2="shape" result="effect1_innerShadow_632_62"/>
</filter>
<filter id="filter2_i_632_62" x="252.233" y="197.48" width="66.5582" height="109.208" filterUnits="userSpaceOnUse" color-interpolation-filters="sRGB">
<feFlood flood-opacity="0" result="BackgroundImageFix"/>
<feBlend mode="normal" in="SourceGraphic" in2="BackgroundImageFix" result="shape"/>
<feColorMatrix in="SourceAlpha" type="matrix" values="0 0 0 0 0 0 0 0 0 0 0 0 0 0 0 0 0 0 127 0" result="hardAlpha"/>
<feOffset dx="-0.4" dy="0.4"/>
<feGaussianBlur stdDeviation="0.4"/>
<feComposite in2="hardAlpha" operator="arithmetic" k2="-1" k3="1"/>
<feColorMatrix type="matrix" values="0 0 0 0 0.690196 0 0 0 0 0.686275 0 0 0 0 0.698039 0 0 0 1 0"/>
<feBlend mode="normal" in2="shape" result="effect1_innerShadow_632_62"/>
</filter>
<filter id="filter3_f_632_62" x="43.7562" y="41.3449" width="240.7" height="179.192" filterUnits="userSpaceOnUse" color-interpolation-filters="sRGB">
<feFlood flood-opacity="0" result="BackgroundImageFix"/>
<feBlend mode="normal" in="SourceGraphic" in2="BackgroundImageFix" result="shape"/>
<feGaussianBlur stdDeviation="0.2" result="effect1_foregroundBlur_632_62"/>
</filter>
<filter id="filter4_f_632_62" x="289.357" y="152.954" width="22.9852" height="31.6036" filterUnits="userSpaceOnUse" color-interpolation-filters="sRGB">
<feFlood flood-opacity="0" result="BackgroundImageFix"/>
<feBlend mode="normal" in="SourceGraphic" in2="BackgroundImageFix" result="shape"/>
<feGaussianBlur stdDeviation="0.3" result="effect1_foregroundBlur_632_62"/>
</filter>
<radialGradient id="paint0_radial_632_62" cx="0" cy="0" r="1" gradientUnits="userSpaceOnUse" gradientTransform="translate(225.446 38.4871) rotate(101.544) scale(186.069 257.366)">
<stop stop-color="#DADADB"/>
<stop offset="1" stop-color="#B9B5BD"/>
</radialGradient>
<radialGradient id="paint1_radial_632_62" cx="0" cy="0" r="1" gradientUnits="userSpaceOnUse" gradientTransform="translate(21.1737 156.025) rotate(6.43914) scale(105.603 352.444)">
<stop offset="0.096" stop-color="#969499"/>
<stop offset="1" stop-color="#969499" stop-opacity="0"/>
</radialGradient>
<radialGradient id="paint2_radial_632_62" cx="0" cy="0" r="1" gradientUnits="userSpaceOnUse" gradientTransform="translate(75.2615 253.687) rotate(-129.854) scale(33.6291 11.2475)">
<stop offset="0.256" stop-color="#C6C4C9"/>
<stop offset="1" stop-color="#C6C4C9" stop-opacity="0"/>
</radialGradient>
<radialGradient id="paint3_radial_632_62" cx="0" cy="0" r="1" gradientTransform="matrix(-14.4248 -17.1196 4.925 -4.14977 74.3161 255.771)" gradientUnits="userSpaceOnUse">
<stop offset="0.167" stop-color="#8D8D8F"/>
<stop offset="1" stop-color="#8D8D8F" stop-opacity="0"/>
</radialGradient>
<radialGradient id="paint4_radial_632_62" cx="0" cy="0" r="1" gradientUnits="userSpaceOnUse" gradientTransform="translate(220.748 80.8028) rotate(-67.149) scale(37.6745 73.3717)">
<stop offset="0.567" stop-color="#EBEBED"/>
<stop offset="1" stop-color="#EBEBED" stop-opacity="0"/>
</radialGradient>
<linearGradient id="paint5_linear_632_62" x1="312.256" y1="209.585" x2="297.124" y2="182.078" gradientUnits="userSpaceOnUse">
<stop offset="0.327" stop-color="#B1B0B4"/>
<stop offset="1" stop-color="#B1B0B4" stop-opacity="0"/>
</linearGradient>
<linearGradient id="paint6_linear_632_62" x1="67.7717" y1="265.173" x2="112.64" y2="345.604" gradientUnits="userSpaceOnUse">
<stop stop-color="#A6A0AA"/>
<stop offset="1" stop-color="#9D94A2"/>
</linearGradient>
<linearGradient id="paint7_linear_632_62" x1="120.376" y1="343.851" x2="106.521" y2="318.602" gradientUnits="userSpaceOnUse">
<stop stop-color="#998E9E"/>
<stop offset="1" stop-color="#998E9E" stop-opacity="0"/>
</linearGradient>
<radialGradient id="paint8_radial_632_62" cx="0" cy="0" r="1" gradientTransform="matrix(45.5198 86.851 -10.3432 5.42095 54.4269 275.238)" gradientUnits="userSpaceOnUse">
<stop stop-color="#817F83"/>
<stop offset="1" stop-color="#817F83" stop-opacity="0"/>
</radialGradient>
<linearGradient id="paint9_linear_632_62" x1="58.5904" y1="251.054" x2="80.6546" y2="281.609" gradientUnits="userSpaceOnUse">
<stop stop-color="#7F7E80"/>
<stop offset="1" stop-color="#7F7E80" stop-opacity="0"/>
</linearGradient>
<linearGradient id="paint10_linear_632_62" x1="111.788" y1="285.763" x2="96.3373" y2="294.987" gradientUnits="userSpaceOnUse">
<stop offset="0.182" stop-color="#807D84"/>
<stop offset="1" stop-color="#807D84" stop-opacity="0"/>
</linearGradient>
<linearGradient id="paint11_linear_632_62" x1="302.997" y1="204.833" x2="296.149" y2="304.023" gradientUnits="userSpaceOnUse">
<stop stop-color="#BAB9BC"/>
<stop offset="1" stop-color="#9F96A4"/>
</linearGradient>
<linearGradient id="paint12_linear_632_62" x1="282.186" y1="307.187" x2="295.146" y2="269.62" gradientUnits="userSpaceOnUse">
<stop stop-color="#9A8F9F"/>
<stop offset="1" stop-color="#9A8F9F" stop-opacity="0"/>
</linearGradient>
<radialGradient id="paint13_radial_632_62" cx="0" cy="0" r="1" gradientUnits="userSpaceOnUse" gradientTransform="translate(313.179 224.167) rotate(93.609) scale(40.7962 7.48557)">
<stop stop-color="#C7C6C8"/>
<stop offset="1" stop-color="#BAB8BC" stop-opacity="0"/>
</radialGradient>
<radialGradient id="paint14_radial_632_62" cx="0" cy="0" r="1" gradientUnits="userSpaceOnUse" gradientTransform="translate(270.389 233.344) rotate(6.97979) scale(42.6812 28.1305)">
<stop stop-color="#C1BFC3"/>
<stop offset="1" stop-color="#C1BFC3" stop-opacity="0"/>
</radialGradient>
<linearGradient id="paint15_linear_632_62" x1="91.557" y1="225.627" x2="162.09" y2="350.465" gradientUnits="userSpaceOnUse">
<stop stop-color="#B7B6B8"/>
<stop offset="0.321" stop-color="#D9D5DD"/>
<stop offset="0.682" stop-color="#D9D5DD"/>
<stop offset="1" stop-color="#CDC1D4"/>
</linearGradient>
<radialGradient id="paint16_radial_632_62" cx="0" cy="0" r="1" gradientTransform="matrix(91.5277 158.454 -13.127 7.58262 73.6117 234.977)" gradientUnits="userSpaceOnUse">
<stop stop-color="#A4A2A6"/>
<stop offset="1" stop-color="#C5BACF" stop-opacity="0"/>
</radialGradient>
<radialGradient id="paint17_radial_632_62" cx="0" cy="0" r="1" gradientUnits="userSpaceOnUse" gradientTransform="translate(139.969 262.187) rotate(149.879) scale(11.511 106.108)">
<stop offset="0.262" stop-color="#F6F4F7"/>
<stop offset="1" stop-color="#E6E1EA" stop-opacity="0"/>
</radialGradient>
<linearGradient id="paint18_linear_632_62" x1="150.147" y1="276.779" x2="144.789" y2="279.582" gradientUnits="userSpaceOnUse">
<stop offset="0.133" stop-color="#DBD9DE"/>
<stop offset="1" stop-color="#DBD9DE" stop-opacity="0"/>
</linearGradient>
<linearGradient id="paint19_linear_632_62" x1="267.132" y1="184.796" x2="252.367" y2="332.476" gradientUnits="userSpaceOnUse">
<stop stop-color="#DAD9DB"/>
<stop offset="0.399" stop-color="#DEDDE1"/>
<stop offset="0.962" stop-color="#C7B9CF"/>
</linearGradient>
<linearGradient id="paint20_linear_632_62" x1="262.135" y1="184.52" x2="260.188" y2="208.54" gradientUnits="userSpaceOnUse">
<stop offset="0.109" stop-color="#C9C9CA"/>
<stop offset="1" stop-color="#C9C9CA" stop-opacity="0"/>
</linearGradient>
<radialGradient id="paint21_radial_632_62" cx="0" cy="0" r="1" gradientUnits="userSpaceOnUse" gradientTransform="translate(232.392 230.336) rotate(3.01395) scale(16.4124 175.327)">
<stop offset="0.205" stop-color="#A4A3A6"/>
<stop offset="1" stop-color="#CECAD3" stop-opacity="0"/>
</radialGradient>
<radialGradient id="paint22_radial_632_62" cx="0" cy="0" r="1" gradientTransform="matrix(-2.40978 42.9678 -6.8518 -0.384226 274.055 222.308)" gradientUnits="userSpaceOnUse">
<stop offset="0.151" stop-color="#F5F3F7"/>
<stop offset="1" stop-color="#E8E4EC" stop-opacity="0"/>
</radialGradient>
<linearGradient id="paint23_linear_632_62" x1="68.0555" y1="215.113" x2="154.062" y2="32.2741" gradientUnits="userSpaceOnUse">
<stop stop-color="#CDCBCF"/>
<stop offset="1" stop-color="#BEB5C7"/>
</linearGradient>
<radialGradient id="paint24_radial_632_62" cx="0" cy="0" r="1" gradientUnits="userSpaceOnUse" gradientTransform="translate(224.782 84.902) rotate(-100.803) scale(60.1206 184.964)">
<stop offset="0.172" stop-color="#AFA7B6"/>
<stop offset="1" stop-color="#AFA7B6" stop-opacity="0"/>
</radialGradient>
<linearGradient id="paint25_linear_632_62" x1="286.555" y1="174.165" x2="229.282" y2="92.3315" gradientUnits="userSpaceOnUse">
<stop stop-color="#9B99A0"/>
<stop offset="1" stop-color="#9B99A0" stop-opacity="0"/>
</linearGradient>
<radialGradient id="paint26_radial_632_62" cx="0" cy="0" r="1" gradientUnits="userSpaceOnUse" gradientTransform="translate(73.7766 231.064) rotate(-101.762) scale(39.1473 59.5759)">
<stop stop-color="#A5A2A9"/>
<stop offset="1" stop-color="#A5A2A9" stop-opacity="0"/>
</radialGradient>
<linearGradient id="paint27_linear_632_62" x1="86.5332" y1="99.3291" x2="248.079" y2="63.423" gradientUnits="userSpaceOnUse">
<stop stop-color="#CFC9D4"/>
<stop offset="1" stop-color="#DFDDE3"/>
</linearGradient>
</defs>
</svg>
