<svg width="52" height="53" viewBox="0 0 52 53" fill="none" xmlns="http://www.w3.org/2000/svg">
<path d="M13.2563 49.9335C15.7728 50.2113 18.3082 49.6129 20.4361 48.239C30.9936 41.1035 40.0924 32.0133 47.243 21.4575C48.6135 19.3274 49.2106 16.7899 48.9339 14.271C48.6572 11.7522 47.5235 9.40539 45.7234 7.62468L44.2037 6.06459C43.5065 5.38211 42.5703 5 41.5954 5C40.6204 5 39.6842 5.38211 38.987 6.06459L32.4203 12.6378C31.741 13.3302 31.3604 14.262 31.3604 15.2327C31.3604 16.2034 31.741 17.1353 32.4203 17.8277C32.766 18.1689 33.0405 18.5756 33.2279 19.0241C33.4153 19.4725 33.5117 19.9538 33.5117 20.4399C33.5117 20.9261 33.4153 21.4074 33.2279 21.8558C33.0405 22.3043 32.766 22.711 32.4203 23.0522L22.0596 33.4285C21.3624 34.111 20.4262 34.4931 19.4513 34.4931C18.4764 34.4931 17.5401 34.111 16.8429 33.4285C16.1516 32.7482 15.2211 32.3671 14.2519 32.3671C13.2827 32.3671 12.3522 32.7482 11.6609 33.4285L5.06299 39.9705C4.38154 40.6688 4 41.6064 4 42.5828C4 43.5592 4.38154 44.4968 5.06299 45.1951L6.61726 46.7136C8.3953 48.5187 10.7397 49.6557 13.2563 49.9335Z" stroke="#FFFAFA" stroke-width="4.57143" stroke-linecap="round" stroke-linejoin="round"/>
<path d="M13.7461 22.3923C13.4962 23.2901 12.6876 23.9785 11.7598 23.891C10.832 23.8035 10.1396 22.976 10.3495 22.068C10.9964 19.2692 12.5823 16.7427 14.8843 14.8985C17.214 13.032 20.1155 11.9938 23.1146 11.9239C24.0171 11.9029 24.6785 12.7103 24.5938 13.609C24.509 14.5077 23.7086 15.1541 22.8076 15.2104C20.7042 15.342 18.6845 16.1089 17.0431 17.4239C15.4295 18.7167 14.2849 20.4565 13.7461 22.3923ZM3.59268 21.428C3.42328 22.3444 2.60779 23.028 1.67997 22.9405C0.752149 22.853 0.0643818 22.0281 0.222143 21.1097C1.14784 15.7202 4.0419 10.8202 8.40788 7.32235C12.8015 3.80237 18.3573 1.96557 24.0367 2.11912C24.939 2.14351 25.5993 2.94656 25.5145 3.84528C25.4298 4.74401 24.6319 5.39712 23.7293 5.38281C18.9427 5.30693 14.2725 6.87885 10.5667 9.84773C6.88864 12.7944 4.4293 16.9021 3.59268 21.428Z" fill="#FFFAFA"/>
</svg>
