<svg width="841" height="387" viewBox="0 0 841 387" fill="none" xmlns="http://www.w3.org/2000/svg">
<g filter="url(#filter0_d_1200_5)">
<path d="M828 373.978H700.257C637.514 373.978 586.651 323.047 586.651 260.221C586.651 197.394 535.788 146.464 473.045 146.464H437.701C374.959 146.464 324.096 197.394 324.096 260.221C324.096 323.047 273.233 373.978 210.49 373.978H166.058C78.7761 373.978 8.01953 303.127 8.01953 215.729V14" stroke="#175DE3" stroke-width="2" stroke-dasharray="26 19"/>
</g>
<path d="M15 7.5C15 11.6421 11.6421 15 7.5 15C3.35786 15 0 11.6421 0 7.5C0 3.35786 3.35786 0 7.5 0C11.6421 0 15 3.35786 15 7.5Z" fill="#175DE3"/>
<path d="M841 373.5C841 377.642 837.642 381 833.5 381C829.358 381 826 377.642 826 373.5C826 369.358 829.358 366 833.5 366C837.642 366 841 369.358 841 373.5Z" fill="#175DE3"/>
<defs>
<filter id="filter0_d_1200_5" x="0.6" y="8.6" width="838.8" height="378.8" filterUnits="userSpaceOnUse" color-interpolation-filters="sRGB">
<feFlood flood-opacity="0" result="BackgroundImageFix"/>
<feColorMatrix in="SourceAlpha" type="matrix" values="0 0 0 0 0 0 0 0 0 0 0 0 0 0 0 0 0 0 127 0" result="hardAlpha"/>
<feOffset dx="3" dy="3"/>
<feGaussianBlur stdDeviation="4.2"/>
<feComposite in2="hardAlpha" operator="out"/>
<feColorMatrix type="matrix" values="0 0 0 0 1 0 0 0 0 0.730769 0 0 0 0 0.230769 0 0 0 0.25 0"/>
<feBlend mode="normal" in2="BackgroundImageFix" result="effect1_dropShadow_1200_5"/>
<feBlend mode="normal" in="SourceGraphic" in2="effect1_dropShadow_1200_5" result="shape"/>
</filter>
</defs>
</svg>
