<svg width="1236" height="609" viewBox="0 0 1236 609" fill="none" xmlns="http://www.w3.org/2000/svg">
<path d="M119 98.5H942.737C951.098 98.5001 959.22 101.295 965.811 106.439L1142.07 244.022C1151.18 251.129 1156.5 262.034 1156.5 273.583V477.5C1156.5 498.211 1139.71 515 1119 515H295.263C286.902 515 278.78 512.205 272.189 507.061L95.9258 369.478C86.8217 362.371 81.5 351.466 81.5 339.917V136C81.5 115.289 98.2893 98.5 119 98.5Z" fill="#FFFAFA" stroke="#175DE3" stroke-width="5"/>
<g filter="url(#filter0_d_1226_21)">
<path d="M1153.61 89.8068C1159.69 89.8068 1164.61 94.7317 1164.61 100.807L1164.61 209.661C1164.61 218.866 1153.98 224 1146.77 218.275L1009.7 109.421C1001.54 102.942 1006.12 89.8068 1016.54 89.8068L1153.61 89.8068Z" fill="#FFBA3B"/>
<path d="M1153.61 90.8066C1159.14 90.8066 1163.61 95.2841 1163.61 100.807V209.661C1163.61 218.03 1153.95 222.696 1147.39 217.492L1010.32 108.638C1002.9 102.748 1007.07 90.8067 1016.54 90.8066H1153.61Z" stroke="#175DE3" stroke-width="2"/>
</g>
<g filter="url(#filter1_d_1226_21)">
<path d="M82.3182 519.125C76.243 519.125 71.3182 514.2 71.3182 508.125L71.3181 399.271C71.3181 390.065 81.9502 384.932 89.1589 390.656L226.233 499.511C234.391 505.989 229.81 519.125 219.392 519.125L82.3182 519.125Z" fill="#FFBA3B"/>
<path d="M82.3185 518.125C76.7957 518.125 72.3182 513.648 72.3182 508.125V399.27C72.3184 390.902 81.9842 386.236 88.5375 391.44L225.611 500.294C233.027 506.184 228.863 518.125 219.392 518.125H82.3185Z" stroke="#175DE3" stroke-width="2"/>
</g>
<line x1="125.615" y1="361.212" x2="267.539" y2="471.926" stroke="url(#paint0_linear_1226_21)" stroke-width="2"/>
<line x1="1109.31" y1="251.502" x2="967.385" y2="140.788" stroke="url(#paint1_linear_1226_21)" stroke-width="2"/>
<g filter="url(#filter2_d_1226_21)">
<path d="M84 334V134L122.944 153.472C129.72 156.86 134 163.785 134 171.361V184V234V284V296.639C134 304.215 129.72 311.14 122.944 314.528L109 321.5L96.5 327.75L84 334Z" fill="url(#paint2_linear_1226_21)"/>
</g>
<path d="M108.793 276.908C109.127 276.47 109.434 275.72 109.714 274.657C109.993 273.585 110.135 272.648 110.14 271.847C110.142 271.476 110.109 271.183 110.042 270.968C109.965 270.752 109.849 270.644 109.693 270.643C109.614 270.643 109.546 270.745 109.486 270.95C109.426 271.145 109.351 271.477 109.26 271.945C109.039 273.106 108.77 274.139 108.452 275.046C108.125 275.952 107.578 276.769 106.812 277.497C106.046 278.216 105.019 278.571 103.73 278.564C101.484 278.551 99.8617 277.849 98.8637 276.457C97.8657 275.054 97.3736 273.133 97.3874 270.691C97.4007 268.328 97.8511 265.533 98.7385 262.305L103.83 263.477L103.829 263.594C103.581 264.295 103.341 265.178 103.111 266.241C102.87 267.304 102.748 268.168 102.745 268.832C102.741 269.525 102.876 269.873 103.149 269.874C103.208 269.718 103.313 269.299 103.464 268.616C103.695 267.475 103.969 266.48 104.286 265.632C104.603 264.785 105.135 264.031 105.881 263.371C106.617 262.711 107.62 262.385 108.889 262.392C108.997 262.392 109.187 262.403 109.461 262.424C111.598 262.612 113.122 263.436 114.032 264.896C114.941 266.357 115.39 268.176 115.378 270.353C115.372 271.427 115.273 272.516 115.081 273.618C114.889 274.711 114.649 275.701 114.361 276.588C114.083 277.475 113.81 278.162 113.544 278.649L108.893 277.319L108.793 276.908ZM97.6592 261.464C97.3845 261.687 97.0369 261.856 96.6163 261.971C96.1957 262.086 95.7462 262.142 95.2677 262.139C94.7598 262.136 94.2622 262.065 93.7747 261.926C93.2872 261.786 92.8586 261.584 92.489 261.318C92.0673 259.899 91.8595 258.663 91.8654 257.608C91.8732 256.231 92.2354 255.208 92.9521 254.538C93.659 253.868 94.6375 253.537 95.8874 253.544C96.3952 253.547 96.9076 253.598 97.4247 253.699C97.8132 254.063 98.1223 254.675 98.3518 255.535C98.5814 256.386 98.6936 257.276 98.6883 258.203C98.6842 258.945 98.5974 259.609 98.4281 260.194C98.2588 260.769 98.0025 261.193 97.6592 261.464ZM100.397 261.773C100.223 261.469 100.041 260.838 99.8508 259.88C99.6511 258.922 99.4859 257.92 99.355 256.874C99.2144 255.828 99.1454 255.091 99.1478 254.661L99.3284 253.812L109.01 253.94C109.499 253.953 109.85 253.906 110.066 253.8C110.272 253.693 110.375 253.469 110.377 253.128C110.378 253.02 110.374 252.932 110.364 252.864L110.717 252.631L114.65 253.913C114.931 254.442 115.152 255.025 115.314 255.66C115.486 256.296 115.571 256.922 115.567 257.537C115.561 258.728 115.218 259.713 114.54 260.49C113.871 261.267 112.824 261.662 111.398 261.673L100.397 261.773ZM114.737 243.718L103.926 243.848C103.525 243.846 103.325 243.927 103.324 244.093C103.323 244.211 103.41 244.348 103.585 244.505C103.75 244.662 103.916 244.78 104.081 244.859L114.306 244.829C114.491 244.957 114.604 245.671 114.646 246.97C114.687 248.269 114.703 249.753 114.694 251.423L114.688 252.507L99.1149 252.698C98.941 252.375 98.759 251.739 98.569 250.79C98.3693 249.842 98.2039 248.864 98.0729 247.858C97.9321 246.851 97.8627 246.157 97.8649 245.777L98.0454 244.928C98.231 244.919 98.5729 244.916 99.0709 244.919L100.257 244.926L100.258 244.823C99.4608 244.184 98.8158 243.399 98.323 242.469C97.8205 241.528 97.5717 240.614 97.5767 239.725C97.5813 238.915 97.8196 238.213 98.2917 237.62C98.7639 237.017 99.4889 236.601 100.467 236.372C99.5921 235.615 98.9035 234.767 98.401 233.826C97.8888 232.886 97.635 231.986 97.6399 231.127C97.6459 230.052 98.0756 229.186 98.929 228.526C99.7726 227.857 101.068 227.523 102.817 227.523L114.404 227.398C114.589 227.526 114.702 228.239 114.744 229.539C114.785 230.838 114.801 232.322 114.792 233.992L114.786 235.076L103.974 235.205C103.574 235.203 103.373 235.285 103.372 235.451C103.372 235.568 103.459 235.705 103.634 235.863C103.799 236.02 103.964 236.138 104.13 236.217L114.356 236.04C114.54 236.168 114.654 236.882 114.695 238.181C114.737 239.48 114.753 240.965 114.743 242.634L114.737 243.718ZM115.803 218.338C115.791 220.457 115.469 222.116 114.838 223.313C114.206 224.511 113.224 225.365 111.893 225.875C110.553 226.375 108.754 226.619 106.499 226.606C104.301 226.594 102.555 226.262 101.26 225.61C99.9648 224.958 99.0423 224.025 98.4925 222.811C97.9427 221.587 97.673 220.057 97.6834 218.221C97.6963 215.936 97.9894 214.175 98.5628 212.938C99.1362 211.701 100.044 210.837 101.287 210.346C102.521 209.855 104.241 209.616 106.448 209.628C108.528 209.64 110.255 209.928 111.629 210.492C113.002 211.057 114.042 211.976 114.748 213.249C115.463 214.523 115.815 216.219 115.803 218.338ZM102.12 218.495C102.374 218.575 103.023 218.652 104.067 218.726C105.102 218.791 106.176 218.826 107.289 218.832C108.383 218.838 109.311 218.814 110.073 218.76C110.825 218.696 111.28 218.591 111.437 218.445C111.467 218.426 111.482 218.319 111.483 218.123C111.484 217.967 111.47 217.884 111.44 217.874C111.256 217.756 110.685 217.665 109.728 217.601C108.762 217.527 107.668 217.487 106.447 217.48C105.393 217.474 104.465 217.493 103.664 217.537C102.853 217.582 102.34 217.652 102.125 217.748C102.027 217.787 101.977 217.914 101.976 218.128C101.975 218.216 101.99 218.299 102.019 218.378C102.038 218.446 102.072 218.485 102.12 218.495ZM100.491 200.996L100.491 200.966L100.505 201.01L100.491 200.996ZM114.935 208.651L99.3476 208.841C99.1737 208.518 98.9917 207.882 98.8018 206.934C98.602 205.985 98.4366 205.008 98.3056 204.001C98.1648 202.994 98.0954 202.301 98.0976 201.92L98.2782 201.071C98.4638 201.062 98.8056 201.059 99.3036 201.062L100.49 201.069L100.491 200.996C99.6549 200.249 99.0004 199.425 98.5269 198.524C98.0535 197.613 97.8192 196.742 97.8239 195.912C97.8299 194.838 98.2596 193.971 99.113 193.312C99.9664 192.643 101.262 192.309 103.001 192.309L114.603 192.184C114.788 192.312 114.901 193.025 114.942 194.324C114.984 195.623 115 197.108 114.991 198.778L114.984 199.862L104.173 199.991C103.773 199.989 103.572 200.071 103.571 200.237C103.57 200.354 103.658 200.491 103.832 200.648C103.998 200.806 104.163 200.924 104.328 201.003L114.553 200.973C114.738 201.101 114.851 201.814 114.893 203.113C114.934 204.412 114.95 205.897 114.941 207.567L114.935 208.651Z" fill="#FFFAFA"/>
<path d="M1069.34 109.415L1071.3 111.763C1070.73 112.217 1070.3 112.576 1070 112.84C1069.7 113.105 1069.47 113.33 1069.33 113.515C1069.22 113.656 1069.13 113.787 1069.08 113.911C1069.04 114.033 1069.01 114.172 1068.99 114.327C1068.96 114.534 1069.03 114.758 1069.19 114.999C1069.36 115.244 1069.6 115.484 1069.9 115.72C1070.18 115.946 1070.5 116.144 1070.84 116.314C1071.18 116.483 1071.48 116.593 1071.74 116.644C1071.96 116.369 1072.23 115.809 1072.56 114.965C1072.89 114.121 1073.2 113.199 1073.48 112.197C1073.63 112.205 1074.32 112.31 1075.57 112.511C1076.83 112.711 1077.51 112.831 1077.6 112.871L1078.31 113.407C1078.23 113.753 1078.01 114.279 1077.64 114.984C1077.29 115.689 1076.88 116.403 1076.44 117.128C1076 117.858 1075.63 118.408 1075.34 118.779C1075.04 119.155 1074.63 119.618 1074.12 120.168C1073.6 120.712 1073.08 121.222 1072.54 121.698C1072 122.174 1071.54 122.498 1071.17 122.669C1070.81 122.731 1070.3 122.66 1069.65 122.455C1069 122.257 1068.29 121.958 1067.55 121.561C1066.81 121.164 1066.12 120.721 1065.51 120.232C1064.79 119.668 1064.25 119.108 1063.89 118.555C1063.31 117.679 1063.06 116.837 1063.12 116.029C1063.19 115.225 1063.57 114.38 1064.28 113.493C1064.76 112.886 1065.39 112.241 1066.18 111.558C1066.97 110.869 1067.95 110.095 1069.11 109.235L1069.34 109.415ZM1075.09 108.538L1075.38 111.088L1072.93 111.381L1072.6 108.889L1075.09 108.538ZM1075.89 125.391C1075.24 124.875 1074.74 124.414 1074.38 124.006C1074.03 123.603 1073.83 123.196 1073.77 122.785C1073.72 122.368 1073.86 121.942 1074.18 121.506C1075.75 119.529 1077.21 117.556 1078.56 115.588C1079.92 113.625 1080.8 112.225 1081.2 111.388L1081.37 111.223L1085.76 112.707L1086.13 113.099C1085.61 113.95 1084.43 115.549 1082.57 117.897L1081.41 119.363C1080.51 120.497 1080.07 121.094 1080.09 121.153C1080.1 121.198 1080.2 121.298 1080.4 121.453L1080.42 121.467C1080.65 121.649 1080.77 121.818 1080.8 121.973C1080.82 122.128 1080.75 122.328 1080.58 122.571C1080.42 122.819 1080.1 123.258 1079.6 123.887C1079.05 124.578 1078.63 125.091 1078.33 125.427C1078.03 125.758 1077.75 125.992 1077.48 126.13C1077.22 126.268 1076.98 126.252 1076.77 126.084L1075.89 125.391ZM1076.35 125.757C1076.2 125.633 1076.11 125.482 1076.09 125.306C1076.08 125.123 1076.18 124.847 1076.39 124.475C1076.61 124.104 1076.98 123.584 1077.5 122.915C1078.13 122.129 1078.56 121.607 1078.8 121.35C1079.04 121.082 1079.24 120.936 1079.4 120.912C1079.57 120.878 1079.77 120.954 1080 121.14L1080.06 121.18C1080.27 121.353 1080.45 121.498 1080.59 121.615L1081.42 122.283C1081.91 122.679 1082.32 122.973 1082.63 123.166C1082.96 123.357 1083.14 123.385 1083.17 123.248C1083.21 123.112 1083.15 122.82 1083.02 122.372C1082.88 121.929 1082.67 121.415 1082.39 120.832C1082.1 120.248 1081.76 119.681 1081.38 119.13L1081.59 118.615L1085.82 114.757L1092.28 117.704L1092.18 117.991L1091.39 118.794L1093.07 119.6L1092.93 120.007L1090.12 122.866L1087.26 121.426C1087.4 121.909 1087.46 122.562 1087.46 123.382C1087.47 124.208 1087.41 124.951 1087.3 125.611C1087.22 126.069 1087.19 126.391 1087.21 126.578C1087.22 126.765 1087.28 126.896 1087.38 126.971L1087.41 126.998C1087.65 127.185 1087.77 127.362 1087.77 127.53C1087.78 127.702 1087.68 127.943 1087.46 128.254C1087.24 128.57 1086.8 129.149 1086.14 129.991C1085.56 130.722 1085.16 131.21 1084.92 131.456C1084.7 131.701 1084.51 131.836 1084.34 131.86C1084.19 131.883 1083.99 131.802 1083.76 131.615L1083.69 131.562C1083.28 131.237 1082.95 130.843 1082.7 130.378C1082.44 129.913 1082.35 129.44 1082.41 128.958C1082.25 129.069 1082.14 129.127 1082.09 129.133C1081.78 129.251 1081.32 129.154 1080.7 128.844C1080.1 128.531 1079.47 128.136 1078.82 127.656C1078.18 127.181 1077.37 126.561 1076.4 125.797L1076.35 125.757ZM1083.77 131.622C1083.55 131.453 1083.45 131.269 1083.45 131.07C1083.45 130.871 1083.52 130.667 1083.65 130.458C1083.77 130.249 1083.98 129.971 1084.25 129.623C1085.02 128.651 1085.57 127.98 1085.9 127.61C1086.23 127.231 1086.51 126.991 1086.74 126.893C1086.97 126.79 1087.19 126.827 1087.42 127.005L1087.47 127.045C1087.62 127.16 1087.79 127.28 1087.99 127.404C1088.2 127.528 1088.35 127.594 1088.47 127.601C1088.57 127.472 1088.73 127.168 1088.94 126.689C1089.17 126.209 1089.33 125.731 1089.45 125.254L1090.42 125.545C1090.59 125.593 1091.08 125.741 1091.92 125.99C1092.76 126.238 1093.23 126.393 1093.32 126.454L1093.47 126.696C1093.38 127.054 1093.11 127.631 1092.66 128.427C1092.21 129.224 1091.8 129.864 1091.42 130.347C1091.32 130.47 1091.25 130.558 1091.2 130.609C1090.88 130.947 1090.3 131.505 1089.43 132.283C1088.58 133.067 1088.05 133.495 1087.86 133.569C1087.41 133.722 1086.81 133.584 1086.03 133.154C1085.26 132.719 1084.52 132.222 1083.82 131.662L1083.77 131.622ZM1082.71 131.76L1082.89 133.314L1084.41 133.1L1084.7 135.65L1082.25 135.943L1082.05 134.43L1080.56 134.604L1080.23 132.111L1082.71 131.76ZM1088.99 134.63C1089.88 133.501 1090.82 132.293 1091.8 131.005C1092.79 129.717 1093.51 128.754 1093.95 128.116C1094.65 127.091 1095.23 126.213 1095.69 125.481C1096.16 124.748 1096.52 124.117 1096.78 123.588L1096.88 123.515L1101.46 125.138L1101.83 125.53C1101.14 126.625 1099.5 128.81 1096.91 132.085C1095.88 133.376 1094.91 134.586 1093.99 135.713C1093.08 136.84 1092.43 137.605 1092.07 138.01L1089.77 136.373L1088.44 135.32L1088.99 134.63ZM1091.29 143.943C1091.08 143.733 1090.84 143.264 1090.55 142.538C1090.27 141.817 1090.01 141.075 1089.78 140.311C1089.56 139.552 1089.45 139.083 1089.44 138.905L1089.62 138.525C1090.2 138.554 1090.92 138.493 1091.79 138.34C1092.66 138.188 1093.45 137.993 1094.17 137.757C1094.89 137.515 1095.33 137.292 1095.49 137.09C1095.56 137.006 1095.71 136.585 1095.96 135.828C1096.21 135.069 1096.47 134.177 1096.75 133.151C1097.17 133.199 1097.91 133.308 1098.99 133.477C1100.09 133.646 1100.74 133.77 1100.97 133.851L1101.58 134.262C1101.39 134.814 1100.96 135.662 1100.29 136.805C1099.63 137.949 1099.03 138.855 1098.5 139.523C1097.36 140.967 1096.16 142.068 1094.9 142.826C1093.64 143.585 1092.44 143.957 1091.29 143.943ZM1100.41 145.304C1099.52 144.606 1099.01 143.896 1098.87 143.173C1098.74 142.445 1098.93 141.752 1099.45 141.095C1100.32 139.994 1101.34 138.896 1102.5 137.802C1103.68 136.701 1104.63 135.848 1105.36 135.242L1106.96 136.12C1107.81 137.045 1108.39 137.967 1108.7 138.883C1109.02 139.8 1109.1 140.67 1108.94 141.494C1108.78 142.318 1108.42 143.084 1107.86 143.792C1107.74 143.943 1107.39 144.315 1106.81 144.908C1106.25 145.499 1105.69 146.053 1105.16 146.57C1104.63 147.085 1104.31 147.364 1104.19 147.409C1103.72 147.306 1103.09 147.029 1102.33 146.578C1101.56 146.137 1100.92 145.713 1100.41 145.304ZM1103.63 140.53C1103.59 140.626 1103.67 140.786 1103.86 141.009C1104.05 141.236 1104.29 141.46 1104.57 141.682C1104.93 141.967 1105.22 142.137 1105.43 142.194C1105.48 142.127 1105.48 141.992 1105.42 141.79C1105.36 141.582 1105.23 141.317 1105.03 140.994C1104.84 140.669 1104.58 140.305 1104.24 139.901C1104.15 139.977 1104.04 140.085 1103.9 140.223C1103.77 140.361 1103.68 140.464 1103.63 140.53ZM1103.73 153.78C1103.52 153.569 1103.27 153.101 1102.99 152.375C1102.7 151.654 1102.44 150.911 1102.22 150.147C1102 149.388 1101.88 148.92 1101.88 148.742L1102.05 148.362C1102.63 148.391 1103.36 148.329 1104.23 148.177C1105.1 148.024 1105.89 147.83 1106.61 147.593C1107.33 147.351 1107.77 147.129 1107.93 146.927C1108 146.843 1108.15 146.422 1108.39 145.664C1108.65 144.906 1108.91 144.013 1109.18 142.987C1109.6 143.035 1110.35 143.144 1111.43 143.314C1112.52 143.482 1113.18 143.607 1113.41 143.687L1114.01 144.098C1113.82 144.651 1113.4 145.499 1112.73 146.642C1112.06 147.785 1111.46 148.691 1110.94 149.36C1109.79 150.803 1108.59 151.904 1107.34 152.663C1106.08 153.421 1104.88 153.794 1103.73 153.78ZM1110.05 159.236C1109.85 159.026 1109.59 158.538 1109.29 157.772C1109 157.011 1108.73 156.224 1108.49 155.411C1108.25 154.603 1108.13 154.109 1108.13 153.932L1108.3 153.552C1108.5 153.575 1108.67 153.59 1108.83 153.597C1109.93 153.713 1110.91 153.788 1111.75 153.823C1112.58 153.863 1113.25 153.823 1113.76 153.703L1113.79 153.661C1113.66 153.656 1113.41 153.509 1113.04 153.22C1112.66 152.914 1112.35 152.628 1112.13 152.363C1111.69 151.838 1111.43 151.319 1111.34 150.804C1111.27 150.287 1111.36 149.843 1111.63 149.47C1111.8 149.225 1111.96 149.021 1112.08 148.858C1112.76 148.01 1113.5 147.222 1114.32 146.494C1115.15 145.77 1116.01 145.267 1116.9 144.985C1117.8 144.702 1118.61 144.844 1119.33 145.413C1120.02 145.955 1120.47 146.656 1120.71 147.516C1120.94 148.376 1120.9 149.341 1120.59 150.412C1120.29 151.483 1119.69 152.583 1118.79 153.712C1117.89 154.852 1117.01 155.832 1116.15 156.651C1115.3 157.464 1114.36 158.114 1113.34 158.6C1112.31 159.093 1111.21 159.304 1110.05 159.236ZM1115.94 148.837C1115.84 148.955 1115.9 149.153 1116.1 149.43C1116.3 149.708 1116.6 149.996 1117 150.296C1117.06 150.223 1117.08 150.077 1117.07 149.859C1117.07 149.64 1117.02 149.409 1116.91 149.167C1116.8 148.92 1116.64 148.711 1116.43 148.543C1116.39 148.511 1116.32 148.528 1116.21 148.591C1116.11 148.648 1116.02 148.73 1115.94 148.837ZM1119.61 159.979C1118.96 159.463 1118.46 159.002 1118.11 158.594C1117.76 158.191 1117.56 157.784 1117.5 157.373C1117.44 156.956 1117.58 156.53 1117.91 156.094C1119.47 154.117 1120.93 152.144 1122.29 150.176C1123.65 148.213 1124.53 146.813 1124.92 145.976L1125.1 145.811L1129.48 147.295L1129.86 147.687C1129.34 148.538 1128.15 150.137 1126.3 152.485L1125.14 153.95C1124.24 155.085 1123.8 155.682 1123.82 155.741C1123.83 155.786 1123.93 155.886 1124.13 156.041L1124.14 156.055C1124.37 156.237 1124.5 156.406 1124.52 156.561C1124.55 156.716 1124.48 156.916 1124.31 157.159C1124.15 157.407 1123.82 157.846 1123.32 158.475C1122.78 159.166 1122.35 159.679 1122.05 160.015C1121.75 160.346 1121.47 160.58 1121.21 160.718C1120.94 160.856 1120.7 160.84 1120.49 160.672L1119.61 159.979ZM1120.5 160.678C1120.38 160.581 1120.35 160.379 1120.43 160.075C1120.5 159.76 1120.68 159.375 1120.94 158.921C1121.21 158.456 1121.56 157.955 1121.98 157.415C1122.48 156.786 1122.83 156.366 1123.04 156.153C1123.24 155.936 1123.41 155.821 1123.57 155.808C1123.73 155.795 1123.92 155.879 1124.15 156.061L1124.23 156.121C1124.31 156.188 1124.41 156.253 1124.51 156.318C1124.62 156.387 1124.7 156.424 1124.74 156.429L1126.07 154.798L1128.6 156.513L1129.13 156.933L1127.61 158.663C1127.61 158.709 1127.64 158.772 1127.68 158.854C1127.73 158.93 1127.79 158.996 1127.87 159.054C1128.02 159.178 1128.18 159.206 1128.35 159.135L1129.53 157.698L1131.95 159.365L1132.52 159.819L1131.12 161.435C1131.13 161.556 1131.22 161.676 1131.37 161.796C1131.51 161.912 1131.65 161.975 1131.76 161.987L1133.23 160.187L1135.85 161.97L1136.38 162.389L1134.72 164.288C1134.72 164.379 1134.87 164.543 1135.17 164.778L1135.21 164.812C1135.44 164.994 1135.57 165.163 1135.59 165.318C1135.62 165.473 1135.55 165.673 1135.38 165.916C1135.22 166.164 1134.89 166.603 1134.39 167.232C1133.85 167.923 1133.42 168.436 1133.12 168.772C1132.82 169.103 1132.54 169.337 1132.28 169.475C1132.01 169.613 1131.78 169.597 1131.56 169.429L1131.5 169.382C1130.72 168.764 1130.28 168.151 1130.16 167.542C1129.85 167.548 1129.49 167.463 1129.09 167.285C1128.7 167.111 1128.31 166.873 1127.93 166.571C1127.62 166.323 1127.33 166.052 1127.08 165.761C1126.83 165.469 1126.63 165.182 1126.48 164.898C1126.19 164.839 1125.86 164.705 1125.46 164.496C1125.08 164.291 1124.7 164.045 1124.34 163.756C1123.93 163.436 1123.59 163.101 1123.31 162.752C1123.04 162.396 1122.86 162.052 1122.8 161.718C1122.42 161.721 1122.03 161.612 1121.61 161.39C1121.19 161.173 1120.85 160.956 1120.58 160.738L1120.5 160.678ZM1132.18 154.987L1132.38 156.707L1134.06 156.473L1134.33 158.782L1132.11 159.041L1131.89 157.361L1130.23 157.555L1129.93 155.303L1132.18 154.987ZM1134.44 153.997L1134.67 155.997L1132.74 156.229L1132.48 154.271L1134.44 153.997ZM1131.57 169.435C1131.41 169.306 1131.32 169.159 1131.3 168.992C1131.29 168.815 1131.38 168.544 1131.59 168.179C1131.8 167.813 1132.17 167.296 1132.7 166.627C1133.35 165.796 1133.8 165.249 1134.05 164.986C1134.29 164.718 1134.48 164.576 1134.63 164.558C1134.78 164.541 1134.98 164.627 1135.22 164.818L1135.27 164.858C1135.32 164.894 1135.36 164.915 1135.39 164.921C1135.42 164.932 1135.47 164.938 1135.51 164.938L1138.58 162.423C1138.62 162.403 1138.97 162.5 1139.64 162.712C1140.32 162.923 1140.77 163.068 1140.97 163.146L1141.67 163.63C1142.21 164.342 1142.55 165.095 1142.69 165.89C1142.83 166.684 1142.8 167.442 1142.6 168.163C1142.41 168.885 1142.09 169.518 1141.66 170.063C1141.55 170.197 1141.17 170.563 1140.52 171.159C1139.87 171.76 1139.23 172.325 1138.59 172.853C1137.96 173.375 1137.53 173.669 1137.32 173.735C1137.2 173.775 1137.02 173.739 1136.8 173.628C1136.58 173.526 1136.33 173.366 1136.06 173.148C1135.58 172.775 1135.13 172.321 1134.68 171.787C1134.24 171.253 1133.93 170.766 1133.75 170.327C1133.37 170.362 1132.98 170.28 1132.59 170.081C1132.2 169.881 1131.87 169.675 1131.6 169.462L1131.57 169.435ZM1137.9 166.968C1137.94 167.126 1138.1 167.371 1138.37 167.702C1138.63 168.032 1138.87 168.278 1139.07 168.438C1139.19 168.535 1139.27 168.57 1139.3 168.54C1139.36 168.483 1139.36 168.35 1139.32 168.141C1139.28 167.927 1139.19 167.672 1139.05 167.378C1138.9 167.083 1138.72 166.785 1138.51 166.485L1137.9 166.968Z" fill="#175DE3"/>
<path d="M104.073 450.208C103.421 449.692 102.919 449.231 102.565 448.823C102.217 448.42 102.014 448.013 101.956 447.602C101.902 447.185 102.039 446.759 102.365 446.323C103.929 444.346 105.389 442.373 106.745 440.405C108.106 438.442 108.986 437.042 109.383 436.205L109.554 436.04L113.941 437.524L114.316 437.916C113.798 438.767 112.611 440.366 110.754 442.714L109.594 444.18C108.697 445.314 108.257 445.911 108.274 445.97C108.284 446.015 108.387 446.115 108.584 446.27L108.601 446.284C108.831 446.466 108.958 446.635 108.981 446.79C109.004 446.945 108.933 447.145 108.768 447.388C108.608 447.636 108.28 448.075 107.782 448.704C107.236 449.395 106.811 449.908 106.509 450.244C106.211 450.575 105.93 450.809 105.665 450.947C105.401 451.085 105.162 451.069 104.949 450.901L104.073 450.208ZM104.957 450.907C104.8 450.783 104.714 450.637 104.7 450.471C104.68 450.3 104.78 450.023 105.001 449.64C105.215 449.253 105.605 448.703 106.169 447.99C106.791 447.204 107.218 446.687 107.449 446.441C107.679 446.185 107.87 446.048 108.021 446.03C108.172 446.013 108.368 446.099 108.609 446.29L108.82 446.457C108.949 446.294 109.146 446.131 109.413 445.967C109.684 445.798 110.24 445.499 111.082 445.069L110.801 444.559C111.537 444.136 112.216 443.751 112.838 443.403C113.466 443.06 113.906 442.861 114.16 442.806L114.741 443.197C114.779 443.264 115.085 443.784 115.657 444.757C116.656 446.46 117.361 447.739 117.772 448.594C118.193 449.447 118.416 450.227 118.443 450.932C118.474 451.642 118.224 452.293 117.692 452.886C117.497 453.097 117.055 453.5 116.365 454.096C115.68 454.696 114.995 455.268 114.309 455.812C113.627 456.35 113.161 456.68 112.91 456.801L112.705 456.817C112.487 456.736 112.136 456.504 111.653 456.122C111.17 455.74 110.681 455.307 110.186 454.824C109.697 454.346 109.357 453.963 109.165 453.674C108.807 453.619 108.262 453.339 107.53 452.833C106.803 452.331 105.977 451.714 105.05 450.981L104.957 450.907ZM111.48 447.493C111.396 447.609 111.371 447.786 111.404 448.021C111.446 448.256 111.529 448.458 111.65 448.627C111.812 448.7 112.014 448.751 112.257 448.778C112.504 448.801 112.688 448.764 112.81 448.668C112.862 448.591 112.882 448.456 112.87 448.263C112.862 448.065 112.827 447.873 112.764 447.687C112.707 447.505 112.642 447.385 112.569 447.327C112.496 447.269 112.349 447.254 112.128 447.279C111.917 447.304 111.701 447.375 111.48 447.493ZM113.42 450.753C113.497 450.887 113.628 451.045 113.812 451.228C114.001 451.405 114.194 451.571 114.39 451.726C114.598 451.891 114.734 451.984 114.798 452.007C114.891 451.889 114.944 451.771 114.955 451.653C114.971 451.528 114.933 451.334 114.841 451.069C114.749 450.805 114.579 450.419 114.332 449.913C114.247 450.02 114.088 450.181 113.853 450.397C113.622 450.607 113.478 450.726 113.42 450.753ZM115.347 465.495C115.139 465.284 114.893 464.816 114.609 464.089C114.321 463.368 114.064 462.626 113.837 461.862C113.616 461.103 113.503 460.634 113.497 460.457L113.675 460.077C114.254 460.106 114.978 460.044 115.848 459.892C116.717 459.739 117.51 459.545 118.227 459.308C118.948 459.066 119.389 458.844 119.549 458.642C119.615 458.557 119.77 458.137 120.013 457.379C120.266 456.621 120.529 455.728 120.802 454.702C121.22 454.75 121.97 454.859 123.05 455.029C124.14 455.197 124.8 455.322 125.028 455.402L125.635 455.813C125.444 456.366 125.016 457.214 124.349 458.357C123.681 459.5 123.084 460.406 122.555 461.075C121.413 462.518 120.213 463.619 118.956 464.378C117.699 465.136 116.496 465.508 115.347 465.495ZM124.276 466.189C123.624 465.673 123.122 465.212 122.768 464.805C122.421 464.402 122.218 463.994 122.159 463.583C122.106 463.166 122.242 462.74 122.568 462.304C124.132 460.327 125.592 458.355 126.948 456.386C128.31 454.423 129.189 453.023 129.586 452.186L129.758 452.021L134.145 453.505L134.519 453.897C134.002 454.748 132.814 456.347 130.957 458.695L129.797 460.161C128.9 461.295 128.46 461.892 128.477 461.951C128.487 461.996 128.591 462.096 128.787 462.252L128.804 462.265C129.034 462.447 129.161 462.616 129.184 462.771C129.208 462.926 129.137 463.126 128.971 463.37C128.812 463.618 128.483 464.056 127.985 464.685C127.439 465.376 127.014 465.89 126.712 466.226C126.414 466.556 126.133 466.79 125.869 466.928C125.604 467.066 125.365 467.051 125.152 466.882L124.276 466.189ZM125.891 463.714C126.513 462.927 126.944 462.405 127.184 462.148C127.423 461.88 127.626 461.734 127.791 461.71C127.955 461.676 128.155 461.752 128.391 461.938L128.442 461.978L129.048 462.458C129.728 462.996 130.232 463.386 130.561 463.628C130.89 463.87 131.182 464.055 131.437 464.183C131.51 463.848 131.407 463.269 131.127 462.445C130.857 461.62 130.492 460.742 130.032 459.812L130.247 459.298L134.207 455.746L141.491 459.316L141.347 459.723L137.998 463.265L135.387 461.856C135.567 462.263 135.696 462.763 135.776 463.356C135.855 463.948 135.86 464.518 135.792 465.067C135.728 465.61 135.587 466.019 135.369 466.294C135.177 466.525 134.749 466.963 134.085 467.606C133.42 468.249 132.77 468.84 132.135 469.378C131.509 469.915 131.098 470.211 130.9 470.264C130.564 470.354 130.142 470.281 129.635 470.045C129.129 469.808 128.521 469.433 127.814 468.919C127.112 468.409 126.104 467.635 124.79 466.595L124.739 466.555C124.582 466.431 124.496 466.28 124.48 466.104C124.469 465.921 124.569 465.645 124.781 465.273C124.992 464.902 125.363 464.382 125.891 463.714ZM139.854 478.511C139.343 478.107 138.899 477.715 138.524 477.336C138.158 476.955 137.903 476.63 137.76 476.362C137.437 476.262 137.06 476.092 136.63 475.851C136.203 475.605 135.791 475.325 135.392 475.009C134.746 474.498 134.261 473.991 133.937 473.489C133.618 472.981 133.577 472.56 133.813 472.226C133.94 472.043 134.161 471.752 134.476 471.353C135.24 470.387 136.059 469.456 136.933 468.558C137.813 467.666 138.431 467.15 138.787 467.011C139.143 466.873 139.577 466.833 140.088 466.89C140.61 466.947 141.286 467.061 142.117 467.235L142.869 467.392L143.222 466.876L145.891 468.056L146.818 468.789C146.363 469.434 145.675 470.373 144.753 471.607C144.507 471.942 144.231 472.313 143.927 472.721C143.629 473.133 143.425 473.419 143.316 473.58C143.319 473.646 143.33 473.701 143.351 473.744C143.381 473.786 143.436 473.839 143.514 473.901L143.548 473.927C143.773 474.105 143.861 474.317 143.813 474.562C143.771 474.811 143.603 475.14 143.308 475.546C143.024 475.951 142.498 476.64 141.729 477.612C141.454 477.96 141.229 478.221 141.056 478.394C140.882 478.567 140.699 478.678 140.506 478.726C140.313 478.774 140.109 478.713 139.896 478.544L139.854 478.511ZM139.139 470.549C139.145 470.646 139.249 470.774 139.451 470.934C139.58 471.036 139.725 471.136 139.884 471.235C140.054 471.332 140.208 471.409 140.347 471.464L140.854 470.701C140.496 470.554 140.146 470.46 139.804 470.418C139.467 470.371 139.245 470.415 139.139 470.549ZM139.904 478.551C139.691 478.382 139.585 478.198 139.587 477.999C139.59 477.8 139.655 477.596 139.784 477.387C139.912 477.179 140.114 476.9 140.39 476.552C141.158 475.58 141.707 474.91 142.036 474.54C142.364 474.16 142.645 473.921 142.878 473.822C143.106 473.719 143.332 473.756 143.556 473.934L143.607 473.974C143.753 474.09 143.927 474.209 144.131 474.334C144.334 474.458 144.492 474.523 144.605 474.531C144.707 474.401 144.865 474.097 145.08 473.619C145.304 473.139 145.472 472.66 145.585 472.183L146.56 472.475C146.723 472.522 147.222 472.67 148.057 472.92C148.902 473.168 149.368 473.322 149.457 473.383L149.608 473.626C149.517 473.983 149.248 474.56 148.8 475.356C148.353 476.153 147.938 476.793 147.556 477.276C147.458 477.399 147.384 477.487 147.334 477.539C147.022 477.876 146.434 478.434 145.572 479.213C144.715 479.996 144.189 480.424 143.993 480.498C143.552 480.652 142.945 480.513 142.171 480.084C141.401 479.648 140.662 479.151 139.955 478.591L139.904 478.551ZM150.084 469.387L150.382 471.937L147.931 472.231L147.602 469.738L150.084 469.387ZM144.408 489.619C144.2 489.409 143.946 488.921 143.648 488.155C143.355 487.394 143.087 486.607 142.845 485.794C142.608 484.986 142.486 484.493 142.481 484.315L142.692 483.961L142.971 483.99C144.04 484.105 144.949 484.19 145.7 484.245C146.452 484.31 147.102 484.331 147.65 484.308C146.751 483.551 146.142 482.814 145.824 482.097C145.506 481.38 145.533 480.762 145.906 480.244C146.099 479.977 146.256 479.768 146.376 479.616C147.14 478.65 147.993 477.768 148.935 476.97C149.887 476.17 150.829 475.619 151.763 475.317C152.706 475.013 153.509 475.123 154.172 475.647C154.773 476.123 155.185 476.704 155.408 477.392C155.631 478.08 155.647 478.85 155.456 479.704C155.275 480.556 154.883 481.461 154.281 482.418L154.5 482.591C154.719 482.764 154.787 482.996 154.704 483.286C154.631 483.575 154.447 483.928 154.154 484.345C153.861 484.761 153.371 485.405 152.682 486.275C152.291 486.769 152.013 487.098 151.849 487.26C151.694 487.42 151.548 487.501 151.41 487.502C151.277 487.497 151.098 487.406 150.874 487.228L150.621 487.028C149.879 487.793 148.98 488.433 147.924 488.949C146.873 489.469 145.701 489.692 144.408 489.619ZM150.493 479.12C150.4 479.238 150.454 479.436 150.654 479.713C150.855 479.991 151.156 480.279 151.558 480.579C151.616 480.506 151.64 480.36 151.63 480.142C151.63 479.923 151.575 479.693 151.465 479.45C151.36 479.203 151.2 478.994 150.987 478.826C150.947 478.795 150.875 478.811 150.771 478.874C150.67 478.931 150.578 479.014 150.493 479.12ZM155.427 491.186C155.383 491.16 155.316 491.112 155.226 491.041C154.951 490.823 154.658 490.518 154.347 490.126C154.038 489.744 153.765 489.356 153.531 488.96C153.296 488.564 153.143 488.238 153.072 487.981C152.718 488.048 152.335 487.996 151.922 487.825C151.51 487.653 151.171 487.464 150.907 487.255L150.857 487.215C150.643 487.046 150.567 486.825 150.627 486.553C150.691 486.276 150.832 485.976 151.05 485.655C151.267 485.334 151.587 484.907 152.009 484.373C152.649 483.564 153.089 483.031 153.329 482.774C153.568 482.506 153.765 482.366 153.922 482.353C154.077 482.329 154.273 482.411 154.509 482.598L154.543 482.624C154.79 482.82 155.078 482.802 155.408 482.569L157.466 480.937C157.494 480.914 157.963 481.025 158.874 481.27C159.784 481.516 160.358 481.691 160.594 481.796L161.341 482.359C161.836 483.061 162.099 483.899 162.131 484.874C162.174 485.848 162.063 486.825 161.8 487.804C161.746 487.999 161.727 488.139 161.742 488.224C161.761 488.303 161.825 488.385 161.931 488.469L161.948 488.482C162.184 488.669 162.309 488.841 162.322 488.997C162.345 489.152 162.254 489.377 162.049 489.671C161.853 489.964 161.436 490.515 160.796 491.324C160.374 491.858 160.032 492.267 159.769 492.553C159.507 492.838 159.248 493.044 158.993 493.171C158.742 493.292 158.51 493.268 158.296 493.099L158.279 493.086C157.88 492.771 157.591 492.432 157.411 492.071C157.237 491.714 157.209 491.299 157.327 490.826C156.463 491.192 155.968 491.349 155.845 491.298L155.427 491.186ZM157.483 484.759C157.515 484.939 157.636 485.218 157.849 485.596C158.067 485.978 158.257 486.234 158.42 486.363C158.487 486.416 158.546 486.44 158.597 486.434C158.606 486.122 158.606 485.862 158.597 485.654C158.593 485.44 158.55 485.206 158.469 484.95C158.399 484.693 158.268 484.471 158.078 484.284L157.483 484.759ZM158.304 493.106C158.091 492.937 157.985 492.753 157.988 492.554C157.99 492.355 158.055 492.151 158.184 491.942C158.313 491.734 158.515 491.455 158.79 491.107C159.559 490.135 160.108 489.464 160.437 489.095C160.764 488.715 161.045 488.476 161.278 488.377C161.506 488.274 161.732 488.311 161.957 488.489L162.007 488.529C162.153 488.645 162.328 488.764 162.531 488.889C162.734 489.013 162.892 489.078 163.005 489.086C163.107 488.956 163.265 488.652 163.48 488.174C163.704 487.694 163.873 487.215 163.985 486.738L164.96 487.03C165.124 487.077 165.623 487.225 166.457 487.474C167.302 487.723 167.769 487.877 167.857 487.938L168.008 488.181C167.917 488.538 167.648 489.115 167.2 489.911C166.753 490.708 166.338 491.348 165.956 491.831C165.858 491.954 165.784 492.042 165.734 492.094C165.422 492.431 164.834 492.989 163.972 493.768C163.115 494.551 162.589 494.979 162.394 495.053C161.953 495.206 161.345 495.068 160.571 494.639C159.801 494.203 159.063 493.706 158.355 493.146L158.304 493.106ZM168.485 483.942L168.782 486.492L166.331 486.786L166.002 484.293L168.485 483.942Z" fill="#175DE3"/>
<defs>
<filter id="filter0_d_1226_21" x="1001.52" y="87.8066" width="167.096" height="138.875" filterUnits="userSpaceOnUse" color-interpolation-filters="sRGB">
<feFlood flood-opacity="0" result="BackgroundImageFix"/>
<feColorMatrix in="SourceAlpha" type="matrix" values="0 0 0 0 0 0 0 0 0 0 0 0 0 0 0 0 0 0 127 0" result="hardAlpha"/>
<feOffset dy="2"/>
<feGaussianBlur stdDeviation="2"/>
<feComposite in2="hardAlpha" operator="out"/>
<feColorMatrix type="matrix" values="0 0 0 0 0.0901961 0 0 0 0 0.364706 0 0 0 0 0.890196 0 0 0 1 0"/>
<feBlend mode="normal" in2="BackgroundImageFix" result="effect1_dropShadow_1226_21"/>
<feBlend mode="normal" in="SourceGraphic" in2="effect1_dropShadow_1226_21" result="shape"/>
</filter>
<filter id="filter1_d_1226_21" x="67.3184" y="386.25" width="167.096" height="138.875" filterUnits="userSpaceOnUse" color-interpolation-filters="sRGB">
<feFlood flood-opacity="0" result="BackgroundImageFix"/>
<feColorMatrix in="SourceAlpha" type="matrix" values="0 0 0 0 0 0 0 0 0 0 0 0 0 0 0 0 0 0 127 0" result="hardAlpha"/>
<feOffset dy="2"/>
<feGaussianBlur stdDeviation="2"/>
<feComposite in2="hardAlpha" operator="out"/>
<feColorMatrix type="matrix" values="0 0 0 0 0.0901961 0 0 0 0 0.364706 0 0 0 0 0.890196 0 0 0 1 0"/>
<feBlend mode="normal" in2="BackgroundImageFix" result="effect1_dropShadow_1226_21"/>
<feBlend mode="normal" in="SourceGraphic" in2="effect1_dropShadow_1226_21" result="shape"/>
</filter>
<filter id="filter2_d_1226_21" x="80.9" y="130.4" width="65.2" height="215.2" filterUnits="userSpaceOnUse" color-interpolation-filters="sRGB">
<feFlood flood-opacity="0" result="BackgroundImageFix"/>
<feColorMatrix in="SourceAlpha" type="matrix" values="0 0 0 0 0 0 0 0 0 0 0 0 0 0 0 0 0 0 127 0" result="hardAlpha"/>
<feOffset dx="4.5" dy="4"/>
<feGaussianBlur stdDeviation="3.8"/>
<feComposite in2="hardAlpha" operator="out"/>
<feColorMatrix type="matrix" values="0 0 0 0 0 0 0 0 0 0 0 0 0 0 0 0 0 0 0.19 0"/>
<feBlend mode="normal" in2="BackgroundImageFix" result="effect1_dropShadow_1226_21"/>
<feBlend mode="normal" in="SourceGraphic" in2="effect1_dropShadow_1226_21" result="shape"/>
</filter>
<linearGradient id="paint0_linear_1226_21" x1="124.692" y1="362.394" x2="266.616" y2="473.108" gradientUnits="userSpaceOnUse">
<stop stop-color="#FFFAFA"/>
<stop offset="0.5" stop-color="#175DE3"/>
<stop offset="1" stop-color="#FFFAFA"/>
</linearGradient>
<linearGradient id="paint1_linear_1226_21" x1="1110.23" y1="250.32" x2="968.308" y2="139.605" gradientUnits="userSpaceOnUse">
<stop stop-color="#FFFAFA"/>
<stop offset="0.5" stop-color="#175DE3"/>
<stop offset="1" stop-color="#FFFAFA"/>
</linearGradient>
<linearGradient id="paint2_linear_1226_21" x1="84" y1="234" x2="134" y2="234" gradientUnits="userSpaceOnUse">
<stop stop-color="#175DE3"/>
<stop offset="1" stop-color="#1E4EAA"/>
</linearGradient>
</defs>
</svg>
