<svg width="75" height="50" viewBox="0 0 75 50" fill="none" xmlns="http://www.w3.org/2000/svg">
<path fill-rule="evenodd" clip-rule="evenodd" d="M42.3598 31.5948C44.5527 35.8001 47.773 44.5873 40.6084 45.9188C36.0495 46.7654 29.9509 44.2287 28.1366 39.7511C25.8629 34.1393 31.5256 30.3751 36.1184 28.9428C37.4404 28.53 38.8018 28.2242 40.1851 27.9946C40.977 29.1524 41.7105 30.3498 42.3598 31.5948ZM74.4394 30.3991C64.6294 26.0896 53.0152 23.7277 42.1347 24.8877C40.6372 22.9258 39.0702 21.1806 37.6696 19.7829C29.532 11.6636 17.7313 5.31316 6.37847 3.29643C5.13774 3.07646 4.41424 4.41927 4.73871 5.40274C4.49486 4.87804 4.25742 4.35017 4.02639 3.81914C5.43516 3.27248 6.88474 2.96426 8.45329 2.88736C9.41181 2.8407 10.442 3.06648 11.38 2.9472C11.9387 2.87631 12.0142 2.48188 12.6336 2.4875C12.8311 2.48933 12.9854 2.24172 12.7945 2.10158C12.2718 1.71828 12.1974 1.17575 11.6585 0.814316C10.8098 0.244587 9.03786 0.083787 8.06649 0.0248709C5.64732 -0.121877 3.27187 0.391126 1.04612 1.31331C0.116618 1.69877 -0.185691 2.71828 0.109094 3.61796C0.831427 5.8236 1.86683 7.92694 3.02327 9.93485C4.02562 11.6742 5.05186 13.7151 6.72022 14.8834C8.02781 15.8001 9.69062 14.522 9.14136 13.021C8.47144 11.1891 7.01876 9.66471 6.04738 7.96869C5.63082 7.2416 5.25974 6.4978 4.90351 5.74729C5.0541 5.9661 5.2742 6.14736 5.57676 6.25814C15.3523 9.83653 24.7392 12.9745 32.8147 19.8709C34.7988 21.5639 36.6458 23.4349 38.295 25.4639C38.0601 25.5085 37.8211 25.5432 37.5858 25.5911C29.8519 27.1813 20.4481 34.0062 26.0964 42.7508C30.1045 48.9581 43.336 53.0984 47.3878 44.7314C49.9768 39.3856 47.554 32.947 44.0161 27.5457C47.3904 27.2997 50.8157 27.392 54.083 27.5163C60.8941 27.7744 67.7019 29.0111 74.2707 30.7987C74.5312 30.8693 74.7034 30.5148 74.4394 30.3991Z" fill="#FFBA3B"/>
</svg>
