<svg width="112" height="281" viewBox="0 0 112 281" fill="none" xmlns="http://www.w3.org/2000/svg">
<g filter="url(#filter0_d_412_513)">
<path d="M22.5899 116.063L20.09 116.087L20.0899 116.063L22.5899 116.063ZM22.5898 198.497L25.0895 198.536L22.5898 198.497ZM24.3776 271.876C23.4124 272.863 21.8296 272.881 20.8423 271.916L4.75306 256.188C3.76575 255.222 3.7478 253.64 4.71298 252.652C5.67816 251.665 7.26097 251.647 8.24829 252.612L22.5498 266.593L36.5307 252.292C37.4959 251.304 39.0787 251.286 40.0661 252.252C41.0534 253.217 41.0713 254.8 40.1061 255.787L24.3776 271.876ZM22.5898 38.9969L20.0898 38.997L22.5898 38.9969ZM107.063 39.1376C106.987 40.5163 105.808 41.5727 104.43 41.4971C103.051 41.4216 101.995 40.2427 102.07 38.8641L104.566 39.0009L107.063 39.1376ZM104.566 39.0009C102.07 38.8641 102.07 38.8644 102.07 38.8647C102.07 38.8648 102.07 38.8651 102.07 38.8653C102.07 38.8657 102.07 38.866 102.07 38.8663C102.07 38.8669 102.07 38.8674 102.07 38.8678C102.07 38.8686 102.07 38.8689 102.07 38.8687C102.07 38.8683 102.07 38.8661 102.07 38.8619C102.071 38.8537 102.071 38.838 102.072 38.8151C102.074 38.7692 102.076 38.6946 102.078 38.5928C102.082 38.3893 102.085 38.078 102.076 37.6733C102.06 36.863 102.001 35.6828 101.831 34.2465L104.313 33.9522L106.796 33.6578C106.988 35.2767 107.056 36.6209 107.075 37.5712C107.085 38.0467 107.083 38.4247 107.077 38.6904C107.075 38.8233 107.071 38.9283 107.069 39.0034C107.067 39.0409 107.066 39.0711 107.065 39.0935C107.064 39.1047 107.064 39.114 107.064 39.1214C107.063 39.1251 107.063 39.1283 107.063 39.131C107.063 39.1323 107.063 39.1336 107.063 39.1347C107.063 39.1352 107.063 39.1358 107.063 39.1362C107.063 39.1365 107.063 39.1368 107.063 39.137C107.063 39.1373 107.063 39.1376 104.566 39.0009ZM101.887 24.1099L99.5573 25.0159C98.5007 22.2988 97.0149 19.4983 94.9299 16.8896L96.8828 15.3288L98.8357 13.7679C101.288 16.8356 103.009 20.0963 104.217 23.2039L101.887 24.1099ZM89.3631 8.58659L88.0199 10.6951C85.6197 9.1661 82.7854 7.84795 79.4313 6.86573L80.1339 4.46649L80.8365 2.06724C84.6256 3.17683 87.8936 4.68628 90.7063 6.47809L89.3631 8.58659ZM70.1628 2.69513L69.9658 5.18735C68.4129 5.06459 66.7811 5 65.0664 5V2.5V0C66.9066 0 68.67 0.0693173 70.3598 0.202903L70.1628 2.69513ZM65.0664 2.5V5C63.289 5 61.5812 5.05812 59.9414 5.17091L59.7699 2.6768L59.5983 0.182695C61.3578 0.0616734 63.1801 0 65.0664 0V2.5ZM49.3106 4.28976L49.9243 6.71325C46.4077 7.60385 43.332 8.81485 40.6594 10.2837L39.4552 8.09281L38.2511 5.9019C41.3284 4.2106 44.806 2.85163 48.6968 1.86627L49.3106 4.28976ZM31.1442 14.5779L32.9923 16.2615C30.78 18.6898 29.0628 21.4424 27.8019 24.4471L25.4966 23.4798L23.1914 22.5124C24.6603 19.012 26.6778 15.7683 29.2961 12.8942L31.1442 14.5779ZM22.8861 33.7103L25.3697 33.9964C25.182 35.6252 25.0897 37.295 25.0898 38.9969L22.5898 38.9969L20.0898 38.997C20.0897 37.1146 20.1918 35.2534 20.4025 33.4242L22.8861 33.7103ZM22.5898 38.9969L25.0898 38.9969C25.0898 40.5438 25.0898 42.1499 25.0898 43.804L22.5898 43.8041L20.0898 43.8041C20.0898 42.15 20.0898 40.5439 20.0898 38.997L22.5898 38.9969ZM22.5899 53.4457L25.0899 53.4456C25.09 56.5915 25.09 59.8227 25.09 63.0799L22.59 63.0799L20.09 63.08C20.09 59.8227 20.09 56.5916 20.0899 53.4457L22.5899 53.4457ZM22.59 72.7132H25.09C25.09 75.9769 25.09 79.2084 25.09 82.348H22.59H20.09C20.09 79.2084 20.09 75.9769 20.09 72.7132L22.59 72.7132ZM22.59 91.9904H25.09C25.09 95.4591 25.09 98.7017 25.09 101.613L22.59 101.613L20.09 101.613C20.09 98.7016 20.09 95.4591 20.09 91.9904L22.59 91.9904ZM22.5899 111.255L25.0899 111.255C25.0899 112.778 25.0899 113.98 25.0899 114.801C25.0899 115.212 25.0899 115.527 25.0899 115.74C25.0899 115.846 25.0899 115.927 25.0899 115.981C25.0899 116.008 25.0899 116.029 25.0899 116.042C25.0899 116.049 25.0899 116.054 25.0899 116.058C25.0899 116.059 25.0899 116.061 25.0899 116.061C25.0899 116.062 25.0899 116.062 25.0899 116.062C25.0899 116.062 25.0899 116.063 25.0899 116.063C25.0899 116.063 25.0899 116.063 25.0899 116.063C25.0899 116.063 25.0899 116.063 22.5899 116.063C20.0899 116.063 20.0899 116.063 20.0899 116.063C20.0899 116.063 20.0899 116.063 20.0899 116.063C20.0899 116.063 20.0899 116.062 20.0899 116.062C20.0899 116.062 20.0899 116.062 20.0899 116.061C20.0899 116.061 20.0899 116.059 20.0899 116.058C20.0899 116.054 20.0899 116.049 20.0899 116.042C20.0899 116.028 20.0899 116.008 20.0899 115.981C20.0899 115.927 20.0899 115.846 20.0899 115.74C20.0899 115.527 20.0899 115.212 20.0899 114.801C20.0899 113.98 20.0899 112.778 20.0899 111.255L22.5899 111.255ZM22.5899 116.063C25.0898 116.038 25.0898 116.038 25.0898 116.038C25.0898 116.038 25.0898 116.038 25.0898 116.038C25.0898 116.038 25.0898 116.038 25.0898 116.038C25.0898 116.039 25.0898 116.039 25.0898 116.039C25.0898 116.04 25.0898 116.042 25.0898 116.044C25.0899 116.047 25.0899 116.053 25.09 116.06C25.0901 116.075 25.0904 116.097 25.0906 116.125C25.0912 116.183 25.092 116.27 25.0931 116.383C25.0953 116.61 25.0984 116.947 25.1024 117.386C25.1104 118.263 25.1216 119.548 25.1348 121.179L22.6349 121.199L20.135 121.22C20.1218 119.591 20.1105 118.307 20.1026 117.431C20.0986 116.993 20.0955 116.657 20.0933 116.431C20.0923 116.317 20.0914 116.231 20.0909 116.174C20.0906 116.145 20.0904 116.124 20.0902 116.109C20.0902 116.102 20.0901 116.096 20.0901 116.093C20.0901 116.091 20.0901 116.09 20.09 116.089C20.09 116.088 20.09 116.088 20.09 116.088C20.09 116.088 20.09 116.088 20.09 116.087C20.09 116.087 20.09 116.087 20.09 116.087C20.09 116.087 20.09 116.087 22.5899 116.063ZM22.7083 131.509L25.2083 131.494C25.2276 134.609 25.2466 138.083 25.263 141.806L22.763 141.817L20.263 141.828C20.2467 138.108 20.2277 134.638 20.2084 131.525L22.7083 131.509ZM22.7983 152.124L25.2983 152.118C25.3064 155.471 25.3114 158.928 25.3118 162.43L22.8118 162.43L20.3118 162.43C20.3114 158.933 20.3065 155.479 20.2984 152.13L22.7983 152.124ZM22.7989 172.738L25.2989 172.744C25.2894 176.216 25.2743 179.674 25.2524 183.061L22.7524 183.045L20.2525 183.029C20.2744 179.649 20.2894 176.197 20.2989 172.731L22.7989 172.738ZM22.6599 193.355L25.1598 193.385C25.1389 195.145 25.1156 196.865 25.0895 198.536L22.5898 198.497L20.0901 198.458C20.1161 196.794 20.1394 195.08 20.1601 193.325L22.6599 193.355ZM22.5898 198.497L25.0895 198.536C25.0667 199.998 25.0461 201.488 25.0276 202.998L22.5278 202.967L20.028 202.937C20.0466 201.421 20.0672 199.926 20.0901 198.458L22.5898 198.497ZM22.442 211.925L24.9419 211.942C24.9208 214.906 24.9058 217.902 24.896 220.89L22.396 220.882L19.896 220.874C19.9059 217.88 19.9208 214.878 19.9421 211.907L22.442 211.925ZM22.3809 229.84L24.8809 229.84C24.8803 232.894 24.8841 235.893 24.8911 238.792L22.3911 238.798L19.8911 238.804C19.8841 235.901 19.8803 232.897 19.8809 229.839L22.3809 229.84ZM22.423 247.751L24.9229 247.739C24.9381 250.983 24.9561 253.998 24.9745 256.697L22.4746 256.714L19.9746 256.731C19.9562 254.029 19.9382 251.01 19.923 247.762L22.423 247.751ZM22.5457 265.671L25.0456 265.649C25.0585 267.065 25.0695 268.178 25.0773 268.937C25.0813 269.317 25.0844 269.608 25.0865 269.804C25.0875 269.902 25.0884 269.976 25.0889 270.026C25.0892 270.05 25.0894 270.069 25.0895 270.082C25.0896 270.088 25.0897 270.092 25.0897 270.096C25.0897 270.097 25.0897 270.098 25.0897 270.099C25.0897 270.099 25.0897 270.1 25.0897 270.1C25.0897 270.1 25.0897 270.1 25.0897 270.1C25.0897 270.1 25.0897 270.1 25.0897 270.1C25.0897 270.1 25.0897 270.1 22.5899 270.128C20.0901 270.157 20.0901 270.157 20.0901 270.157C20.0901 270.157 20.0901 270.157 20.0901 270.157C20.0901 270.157 20.0901 270.157 20.0901 270.156C20.0901 270.156 20.0901 270.156 20.0901 270.156C20.09 270.155 20.09 270.154 20.09 270.152C20.09 270.149 20.0899 270.144 20.0899 270.138C20.0897 270.125 20.0895 270.106 20.0892 270.081C20.0887 270.031 20.0878 269.956 20.0868 269.858C20.0846 269.661 20.0815 269.369 20.0776 268.989C20.0698 268.228 20.0587 267.113 20.0458 265.694L22.5457 265.671ZM22.5899 116.063L20.09 116.087L20.0899 116.063L22.5899 116.063ZM22.5898 198.497L25.0895 198.536L22.5898 198.497ZM24.3776 271.876C23.4124 272.863 21.8296 272.881 20.8423 271.916L4.75306 256.188C3.76575 255.222 3.7478 253.64 4.71298 252.652C5.67816 251.665 7.26097 251.647 8.24829 252.612L22.5498 266.593L36.5307 252.292C37.4959 251.304 39.0787 251.286 40.0661 252.252C41.0534 253.217 41.0713 254.8 40.1061 255.787L24.3776 271.876ZM22.5898 38.9969L20.0898 38.997L22.5898 38.9969ZM107.063 39.1376C106.987 40.5163 105.808 41.5727 104.43 41.4971C103.051 41.4216 101.995 40.2427 102.07 38.8641L104.566 39.0009L107.063 39.1376ZM104.566 39.0009C102.07 38.8641 102.07 38.8644 102.07 38.8647C102.07 38.8648 102.07 38.8651 102.07 38.8653C102.07 38.8657 102.07 38.866 102.07 38.8663C102.07 38.8669 102.07 38.8674 102.07 38.8678C102.07 38.8686 102.07 38.8689 102.07 38.8687C102.07 38.8683 102.07 38.8661 102.07 38.8619C102.071 38.8537 102.071 38.838 102.072 38.8151C102.074 38.7692 102.076 38.6946 102.078 38.5928C102.082 38.3893 102.085 38.078 102.076 37.6733C102.06 36.863 102.001 35.6828 101.831 34.2465L104.313 33.9522L106.796 33.6578C106.988 35.2767 107.056 36.6209 107.075 37.5712C107.085 38.0467 107.083 38.4247 107.077 38.6904C107.075 38.8233 107.071 38.9283 107.069 39.0034C107.067 39.0409 107.066 39.0711 107.065 39.0935C107.064 39.1047 107.064 39.114 107.064 39.1214C107.063 39.1251 107.063 39.1283 107.063 39.131C107.063 39.1323 107.063 39.1336 107.063 39.1347C107.063 39.1352 107.063 39.1358 107.063 39.1362C107.063 39.1365 107.063 39.1368 107.063 39.137C107.063 39.1373 107.063 39.1376 104.566 39.0009ZM101.887 24.1099L99.5573 25.0159C98.5007 22.2988 97.0149 19.4983 94.9299 16.8896L96.8828 15.3288L98.8357 13.7679C101.288 16.8356 103.009 20.0963 104.217 23.2039L101.887 24.1099ZM89.3631 8.58659L88.0199 10.6951C85.6197 9.1661 82.7854 7.84795 79.4313 6.86573L80.1339 4.46649L80.8365 2.06724C84.6256 3.17683 87.8936 4.68628 90.7063 6.47809L89.3631 8.58659ZM70.1628 2.69513L69.9658 5.18735C68.4129 5.06459 66.7811 5 65.0664 5V2.5V0C66.9066 0 68.67 0.0693173 70.3598 0.202903L70.1628 2.69513ZM65.0664 2.5V5C63.289 5 61.5812 5.05812 59.9414 5.17091L59.7699 2.6768L59.5983 0.182695C61.3578 0.0616734 63.1801 0 65.0664 0V2.5ZM49.3106 4.28976L49.9243 6.71325C46.4077 7.60385 43.332 8.81485 40.6594 10.2837L39.4552 8.09281L38.2511 5.9019C41.3284 4.2106 44.806 2.85163 48.6968 1.86627L49.3106 4.28976ZM31.1442 14.5779L32.9923 16.2615C30.78 18.6898 29.0628 21.4424 27.8019 24.4471L25.4966 23.4798L23.1914 22.5124C24.6603 19.012 26.6778 15.7683 29.2961 12.8942L31.1442 14.5779ZM22.8861 33.7103L25.3697 33.9964C25.182 35.6252 25.0897 37.295 25.0898 38.9969L22.5898 38.9969L20.0898 38.997C20.0897 37.1146 20.1918 35.2534 20.4025 33.4242L22.8861 33.7103ZM22.5898 38.9969L25.0898 38.9969C25.0898 40.5438 25.0898 42.1499 25.0898 43.804L22.5898 43.8041L20.0898 43.8041C20.0898 42.15 20.0898 40.5439 20.0898 38.997L22.5898 38.9969ZM22.5899 53.4457L25.0899 53.4456C25.09 56.5915 25.09 59.8227 25.09 63.0799L22.59 63.0799L20.09 63.08C20.09 59.8227 20.09 56.5916 20.0899 53.4457L22.5899 53.4457ZM22.59 72.7132H25.09C25.09 75.9769 25.09 79.2084 25.09 82.348H22.59H20.09C20.09 79.2084 20.09 75.9769 20.09 72.7132L22.59 72.7132ZM22.59 91.9904H25.09C25.09 95.4591 25.09 98.7017 25.09 101.613L22.59 101.613L20.09 101.613C20.09 98.7016 20.09 95.4591 20.09 91.9904L22.59 91.9904ZM22.5899 111.255L25.0899 111.255C25.0899 112.778 25.0899 113.98 25.0899 114.801C25.0899 115.212 25.0899 115.527 25.0899 115.74C25.0899 115.846 25.0899 115.927 25.0899 115.981C25.0899 116.008 25.0899 116.029 25.0899 116.042C25.0899 116.049 25.0899 116.054 25.0899 116.058C25.0899 116.059 25.0899 116.061 25.0899 116.061C25.0899 116.062 25.0899 116.062 25.0899 116.062C25.0899 116.062 25.0899 116.063 25.0899 116.063C25.0899 116.063 25.0899 116.063 25.0899 116.063C25.0899 116.063 25.0899 116.063 22.5899 116.063C20.0899 116.063 20.0899 116.063 20.0899 116.063C20.0899 116.063 20.0899 116.063 20.0899 116.063C20.0899 116.063 20.0899 116.062 20.0899 116.062C20.0899 116.062 20.0899 116.062 20.0899 116.061C20.0899 116.061 20.0899 116.059 20.0899 116.058C20.0899 116.054 20.0899 116.049 20.0899 116.042C20.0899 116.028 20.0899 116.008 20.0899 115.981C20.0899 115.927 20.0899 115.846 20.0899 115.74C20.0899 115.527 20.0899 115.212 20.0899 114.801C20.0899 113.98 20.0899 112.778 20.0899 111.255L22.5899 111.255ZM22.5899 116.063C25.0898 116.038 25.0898 116.038 25.0898 116.038C25.0898 116.038 25.0898 116.038 25.0898 116.038C25.0898 116.038 25.0898 116.038 25.0898 116.038C25.0898 116.039 25.0898 116.039 25.0898 116.039C25.0898 116.04 25.0898 116.042 25.0898 116.044C25.0899 116.047 25.0899 116.053 25.09 116.06C25.0901 116.075 25.0904 116.097 25.0906 116.125C25.0912 116.183 25.092 116.27 25.0931 116.383C25.0953 116.61 25.0984 116.947 25.1024 117.386C25.1104 118.263 25.1216 119.548 25.1348 121.179L22.6349 121.199L20.135 121.22C20.1218 119.591 20.1105 118.307 20.1026 117.431C20.0986 116.993 20.0955 116.657 20.0933 116.431C20.0923 116.317 20.0914 116.231 20.0909 116.174C20.0906 116.145 20.0904 116.124 20.0902 116.109C20.0902 116.102 20.0901 116.096 20.0901 116.093C20.0901 116.091 20.0901 116.09 20.09 116.089C20.09 116.088 20.09 116.088 20.09 116.088C20.09 116.088 20.09 116.088 20.09 116.087C20.09 116.087 20.09 116.087 20.09 116.087C20.09 116.087 20.09 116.087 22.5899 116.063ZM22.7083 131.509L25.2083 131.494C25.2276 134.609 25.2466 138.083 25.263 141.806L22.763 141.817L20.263 141.828C20.2467 138.108 20.2277 134.638 20.2084 131.525L22.7083 131.509ZM22.7983 152.124L25.2983 152.118C25.3064 155.471 25.3114 158.928 25.3118 162.43L22.8118 162.43L20.3118 162.43C20.3114 158.933 20.3065 155.479 20.2984 152.13L22.7983 152.124ZM22.7989 172.738L25.2989 172.744C25.2894 176.216 25.2743 179.674 25.2524 183.061L22.7524 183.045L20.2525 183.029C20.2744 179.649 20.2894 176.197 20.2989 172.731L22.7989 172.738ZM22.6599 193.355L25.1598 193.385C25.1389 195.145 25.1156 196.865 25.0895 198.536L22.5898 198.497L20.0901 198.458C20.1161 196.794 20.1394 195.08 20.1601 193.325L22.6599 193.355ZM22.5898 198.497L25.0895 198.536C25.0667 199.998 25.0461 201.488 25.0276 202.998L22.5278 202.967L20.028 202.937C20.0466 201.421 20.0672 199.926 20.0901 198.458L22.5898 198.497ZM22.442 211.925L24.9419 211.942C24.9208 214.906 24.9058 217.902 24.896 220.89L22.396 220.882L19.896 220.874C19.9059 217.88 19.9208 214.878 19.9421 211.907L22.442 211.925ZM22.3809 229.84L24.8809 229.84C24.8803 232.894 24.8841 235.893 24.8911 238.792L22.3911 238.798L19.8911 238.804C19.8841 235.901 19.8803 232.897 19.8809 229.839L22.3809 229.84ZM22.423 247.751L24.9229 247.739C24.9381 250.983 24.9561 253.998 24.9745 256.697L22.4746 256.714L19.9746 256.731C19.9562 254.029 19.9382 251.01 19.923 247.762L22.423 247.751ZM22.5457 265.671L25.0456 265.649C25.0585 267.065 25.0695 268.178 25.0773 268.937C25.0813 269.317 25.0844 269.608 25.0865 269.804C25.0875 269.902 25.0884 269.976 25.0889 270.026C25.0892 270.05 25.0894 270.069 25.0895 270.082C25.0896 270.088 25.0897 270.092 25.0897 270.096C25.0897 270.097 25.0897 270.098 25.0897 270.099C25.0897 270.099 25.0897 270.1 25.0897 270.1C25.0897 270.1 25.0897 270.1 25.0897 270.1C25.0897 270.1 25.0897 270.1 25.0897 270.1C25.0897 270.1 25.0897 270.1 22.5899 270.128C20.0901 270.157 20.0901 270.157 20.0901 270.157C20.0901 270.157 20.0901 270.157 20.0901 270.157C20.0901 270.157 20.0901 270.157 20.0901 270.156C20.0901 270.156 20.0901 270.156 20.0901 270.156C20.09 270.155 20.09 270.154 20.09 270.152C20.09 270.149 20.0899 270.144 20.0899 270.138C20.0897 270.125 20.0895 270.106 20.0892 270.081C20.0887 270.031 20.0878 269.956 20.0868 269.858C20.0846 269.661 20.0815 269.369 20.0776 268.989C20.0698 268.228 20.0587 267.113 20.0458 265.694L22.5457 265.671Z" fill="#FFBA3B"/>
</g>
<defs>
<filter id="filter0_d_412_513" x="0" y="0" width="111.082" height="280.629" filterUnits="userSpaceOnUse" color-interpolation-filters="sRGB">
<feFlood flood-opacity="0" result="BackgroundImageFix"/>
<feColorMatrix in="SourceAlpha" type="matrix" values="0 0 0 0 0 0 0 0 0 0 0 0 0 0 0 0 0 0 127 0" result="hardAlpha"/>
<feOffset dy="4"/>
<feGaussianBlur stdDeviation="2"/>
<feComposite in2="hardAlpha" operator="out"/>
<feColorMatrix type="matrix" values="0 0 0 0 0 0 0 0 0 0 0 0 0 0 0 0 0 0 0.25 0"/>
<feBlend mode="normal" in2="BackgroundImageFix" result="effect1_dropShadow_412_513"/>
<feBlend mode="normal" in="SourceGraphic" in2="effect1_dropShadow_412_513" result="shape"/>
</filter>
</defs>
</svg>
