<svg width="236" height="254" viewBox="0 0 236 254" fill="none" xmlns="http://www.w3.org/2000/svg">
<path d="M7.44531 81.8837C7.44531 72.5612 22.163 72.5612 22.1629 81.8837V175.107H7.44531V81.8837Z" fill="#FFFAFA"/>
<path d="M100.005 10.801C100.005 10.801 111.737 4.39192 119.311 6.13987C126.886 7.88782 119.311 11.9663 119.311 11.9663C119.311 11.9663 122.225 20.706 119.311 20.1234C116.398 19.5407 107.429 23.5087 107.429 23.5087L37.07 64.6171C37.07 64.6171 20.8444 70.8136 22.0097 83.6318C22.4844 88.854 14.4356 81.3012 14.4356 81.3012C14.4356 81.3012 7.44384 84.1157 7.44384 81.3012C7.44379 60.9086 29.6454 51.9095 29.6454 51.9095L100.005 10.801Z" fill="#FFFAFA"/>
<path d="M227.861 82.1168C227.861 72.7943 213.144 72.7942 213.144 82.1168V172.777L227.861 173.942L227.861 82.1168Z" fill="#FFFAFA"/>
<path d="M135.3 11.0337L127.875 23.7414L145.465 34.0185L163.055 44.2956L198.235 64.8498C198.235 64.8498 213.295 71.9787 213.295 83.8644C213.295 94.1193 220.869 81.5339 220.869 81.5339C220.869 81.5339 227.861 84.3483 227.861 81.5339C227.861 62.6564 205.66 52.1422 205.66 52.1422L170.48 31.5879L152.89 21.3108L135.3 11.0337Z" fill="#FFFAFA"/>
<path d="M58.4143 123.248C58.4143 122.476 59.2529 121.995 59.9196 122.385L133.523 165.477C134.193 165.869 134.18 166.843 133.499 167.216L121.891 173.59C121.581 173.76 121.205 173.754 120.9 173.574L58.9049 136.872C58.6008 136.692 58.4143 136.364 58.4143 136.011L58.4143 123.248Z" fill="#FFFAFA"/>
<path d="M57.9965 178.902C57.6901 178.72 57.5032 178.39 57.506 178.034L57.6072 165.059C57.6132 164.29 58.4487 163.815 59.1124 164.203L107.782 192.692L101.251 204.509L57.9965 178.902Z" fill="#FFFAFA"/>
<path d="M147.734 18.3069L140.312 31.0094L132.766 26.6L128.993 24.3953L125.22 22.1906C125.22 22.1906 119.893 19.5405 116.98 20.1232C113.382 20.8427 112.319 11.9661 112.319 11.9661C112.319 11.9661 111.736 7.30493 116.98 6.13964C122.224 4.97435 132.643 9.48806 132.643 9.48806L147.734 18.3069Z" fill="#FFFAFA"/>
<path d="M100.005 243.105C100.005 243.105 111.737 249.514 119.311 247.766C126.886 246.018 119.311 241.939 119.311 241.939C119.311 241.939 122.225 233.2 119.311 233.782C116.398 234.365 107.429 230.397 107.429 230.397L37.07 189.289C37.07 189.289 20.8444 183.092 22.0097 170.274C22.4844 165.052 14.4356 172.605 14.4356 172.605C14.4356 172.605 7.44384 169.79 7.44384 172.605C7.44379 192.997 29.6454 201.996 29.6454 201.996L100.005 243.105Z" fill="#FFFAFA"/>
<path d="M135.3 242.872L127.875 230.164L145.465 219.887L163.055 209.61L198.235 189.056C198.235 189.056 214.124 180.934 213.117 169.863C212.643 164.641 220.869 172.372 220.869 172.372C220.869 172.372 227.861 169.557 227.861 172.372C227.861 190.256 205.659 201.763 205.659 201.763L170.48 222.317L152.89 232.595L135.3 242.872Z" fill="#FFFAFA"/>
<path d="M147.734 235.598L140.312 222.896L132.766 227.305L128.993 229.51L125.22 231.715C125.22 231.715 119.893 234.365 116.98 233.782C113.382 233.063 112.319 241.939 112.319 241.939C112.319 241.939 111.736 246.6 116.98 247.766C122.224 248.931 132.643 244.417 132.643 244.417L147.734 235.598Z" fill="#FFFAFA"/>
<path d="M161.4 171.671C161.4 171.671 163.009 170.446 163.009 164.62C163.01 158.793 169.418 164.62 169.418 164.62C169.418 164.62 175.245 150.636 176.41 164.62C177.575 178.603 168.128 183.194 168.128 183.194L129.684 205.64C129.684 205.64 125.392 208.318 115.815 208.318C106.237 208.318 115.815 203.074 115.815 203.074C115.815 203.074 112.319 194.917 115.815 195.5C119.31 196.083 122.956 194.117 122.956 194.117L161.4 171.671Z" fill="#FFFAFA"/>
<path d="M161.4 171.671C161.4 171.671 163.009 170.446 163.009 164.62C163.01 158.793 169.418 164.62 169.418 164.62C169.418 164.62 175.245 150.636 176.41 164.62C177.575 178.603 168.128 183.194 168.128 183.194L129.684 205.64C129.684 205.64 125.392 208.318 115.815 208.318C106.237 208.318 115.815 203.074 115.815 203.074C115.815 203.074 112.319 194.917 115.815 195.5C119.31 196.083 122.956 194.117 122.956 194.117L161.4 171.671Z" fill="#FFFAFA"/>
<path d="M98.0593 186.904L111.095 194.622C111.095 194.622 112.322 195.5 117.566 195.5C120.025 195.5 116.983 202.491 116.983 202.491C116.983 202.491 121.061 208.318 116.983 208.318C107.604 208.318 104.209 206.252 104.209 206.252L91.1735 198.533L98.0593 186.904Z" fill="#FFFAFA"/>
<path d="M98.0593 186.904L111.095 194.622C111.095 194.622 112.322 195.5 117.566 195.5C120.025 195.5 116.983 202.491 116.983 202.491C116.983 202.491 121.061 208.318 116.983 208.318C107.604 208.318 104.209 206.252 104.209 206.252L91.1735 198.533L98.0593 186.904Z" fill="#FFFAFA"/>
<path d="M74.8378 94.7021L165.6 148.443C165.6 148.443 176.412 152.967 176.412 164.62C176.412 176.273 169.42 164.62 169.42 164.62C169.42 164.62 163.011 167.75 163.011 164.62C163.011 162.289 158.802 159.924 158.802 159.924L68.0399 106.183L74.8378 94.7021Z" fill="#FFFAFA"/>
<path d="M74.8383 94.7018L165.6 148.442C165.6 148.442 176.412 152.966 176.412 164.619C176.412 176.272 169.421 164.619 169.421 164.619C169.421 164.619 163.012 167.75 163.012 164.619C163.012 162.289 158.802 159.923 158.802 159.923L68.0404 106.183C68.0404 106.183 58.7186 101.694 58.718 91.206C58.7175 80.7183 65.127 91.206 65.127 91.206C65.127 91.206 72.1189 89.4581 72.1188 91.206C72.1187 92.9539 74.8383 94.7018 74.8383 94.7018Z" fill="#FFFAFA"/>
<path d="M176.358 79.526C176.663 79.7065 176.849 80.035 176.848 80.3893L176.812 93.2279C176.81 93.9991 175.973 94.4777 175.307 94.0881L126.648 65.6023L133.1 53.9169L176.358 79.526Z" fill="#FFFAFA"/>
<path d="M73.0215 86.8526C73.0215 86.8526 72.1199 88.5078 72.1197 91.206C72.1197 91.206 59.8838 107.887 58.7189 93.9041C57.5541 79.9208 66.2938 75.3296 66.2938 75.3296L104.738 52.8841C104.738 52.8841 109.03 50.2057 118.607 50.2056C128.184 50.2055 118.607 55.4494 118.607 55.4494C118.607 55.4494 122.102 63.6066 118.607 63.0238C115.112 62.4411 111.466 64.4071 111.466 64.4071L73.0215 86.8526Z" fill="#FFFAFA"/>
<path d="M136.363 71.6197L123.327 63.9015C123.327 63.9015 122.1 63.024 116.856 63.024C114.396 63.024 117.439 56.0322 117.439 56.0322C117.439 56.0322 113.36 50.2057 117.439 50.2057C126.818 50.2057 130.213 52.272 130.213 52.272L143.248 59.9902L136.363 71.6197Z" fill="#FFFAFA"/>
</svg>
