<svg width="493" height="176" viewBox="0 0 493 176" fill="none" xmlns="http://www.w3.org/2000/svg">
<g filter="url(#filter0_d_1004_3)">
<path d="M10.0867 63.2137C7.0861 66.2143 5.40039 70.284 5.40039 74.5274V147.9C5.40039 156.737 12.5638 163.9 21.4004 163.9H465.4C474.237 163.9 481.4 156.737 481.4 147.9V21.4C481.4 12.5635 474.237 5.40002 465.4 5.40002H74.5278C70.2843 5.40002 66.2147 7.08574 63.2141 10.0863L10.0867 63.2137Z" fill="#FFFAFA"/>
<path d="M5.40039 44.329C5.40039 48.7835 10.7861 51.0143 13.9359 47.8645L47.8649 13.9356C51.0147 10.7857 48.7838 5.40002 44.3293 5.40002H10.4004C7.63897 5.40002 5.40039 7.6386 5.40039 10.4V44.329Z" fill="#175DE3"/>
</g>
<defs>
<filter id="filter0_d_1004_3" x="0.000391006" y="2.47955e-05" width="492.8" height="175.3" filterUnits="userSpaceOnUse" color-interpolation-filters="sRGB">
<feFlood flood-opacity="0" result="BackgroundImageFix"/>
<feColorMatrix in="SourceAlpha" type="matrix" values="0 0 0 0 0 0 0 0 0 0 0 0 0 0 0 0 0 0 127 0" result="hardAlpha"/>
<feOffset dx="3" dy="3"/>
<feGaussianBlur stdDeviation="4.2"/>
<feComposite in2="hardAlpha" operator="out"/>
<feColorMatrix type="matrix" values="0 0 0 0 0.0901961 0 0 0 0 0.364706 0 0 0 0 0.890196 0 0 0 0.25 0"/>
<feBlend mode="normal" in2="BackgroundImageFix" result="effect1_dropShadow_1004_3"/>
<feBlend mode="normal" in="SourceGraphic" in2="effect1_dropShadow_1004_3" result="shape"/>
</filter>
</defs>
</svg>
