<svg width="25" height="22" viewBox="0 0 25 22" fill="none" xmlns="http://www.w3.org/2000/svg">
<path d="M22.5653 0.00224124C22.2643 0.0241372 21.9689 0.0947428 21.6906 0.211304H21.6868C21.4197 0.317241 20.1493 0.851616 18.2181 1.66162L11.2975 4.5763C6.33153 6.66693 1.44997 8.72568 1.44997 8.72568L1.50809 8.70318C1.50809 8.70318 1.17153 8.8138 0.819966 9.05474C0.602773 9.19295 0.415879 9.37378 0.270591 9.5863C0.098091 9.83943 -0.040659 10.2266 0.0109035 10.6269C0.0952785 11.3038 0.534028 11.7097 0.849028 11.9338C1.16778 12.1607 1.47153 12.2666 1.47153 12.2666H1.47903L6.05684 13.8088C6.26215 14.4679 7.45184 18.3791 7.73778 19.2801C7.90653 19.8182 8.07059 20.1547 8.2759 20.4116C8.37528 20.5429 8.49153 20.6526 8.63122 20.7407C8.70383 20.7829 8.78126 20.8163 8.86184 20.8401L8.81497 20.8288C8.82903 20.8326 8.84028 20.8438 8.85059 20.8476C8.88809 20.8579 8.9134 20.8616 8.96122 20.8691C9.6859 21.0885 10.2681 20.6385 10.2681 20.6385L10.3009 20.6122L13.0037 18.1513L17.5337 21.6266L17.6368 21.6707C18.5809 22.0851 19.5372 21.8544 20.0425 21.4476C20.5515 21.0379 20.7493 20.5138 20.7493 20.5138L20.7822 20.4294L24.2828 2.49599C24.3822 2.05349 24.4075 1.63912 24.2978 1.23693C24.1846 0.82989 23.9235 0.479811 23.5656 0.255366C23.265 0.0726614 22.9165 -0.0155258 22.5653 0.00224124ZM22.4706 1.92412C22.4668 1.98318 22.4781 1.97662 22.4518 2.09005V2.10037L18.984 19.8472C18.969 19.8726 18.9437 19.9279 18.8743 19.9832C18.8012 20.0413 18.7431 20.0779 18.4384 19.9569L12.8978 15.7091L9.5509 18.7597L10.254 14.2691L19.3065 5.83162C19.6797 5.48474 19.555 5.41162 19.555 5.41162C19.5812 4.98599 18.9915 5.28693 18.9915 5.28693L7.57653 12.3585L7.57278 12.3397L2.10153 10.4976V10.4938L2.08747 10.491C2.09706 10.4878 2.10645 10.484 2.11559 10.4797L2.14559 10.4647L2.17465 10.4544C2.17465 10.4544 7.05997 8.39568 12.0259 6.30505C14.5122 5.25787 17.0172 4.20318 18.9437 3.38943C20.0863 2.90849 21.23 2.43037 22.375 1.95505C22.4518 1.92505 22.4153 1.92412 22.4706 1.92412Z" fill="#175DE3"/>
</svg>
