<svg width="493" height="176" viewBox="0 0 493 176" fill="none" xmlns="http://www.w3.org/2000/svg">
<g filter="url(#filter0_d_1003_6)">
<path d="M10.0867 106.086C7.0861 103.086 5.40039 99.0161 5.40039 94.7726V21.4C5.40039 12.5635 12.5638 5.40002 21.4004 5.40002H465.4C474.237 5.40002 481.4 12.5635 481.4 21.4V147.9C481.4 156.737 474.237 163.9 465.4 163.9H74.5278C70.2843 163.9 66.2147 162.214 63.2141 159.214L10.0867 106.086Z" fill="#FFFAFA"/>
<path d="M5.40039 124.971C5.40039 120.517 10.7861 118.286 13.9359 121.436L47.8649 155.364C51.0147 158.514 48.7838 163.9 44.3293 163.9H10.4004C7.63897 163.9 5.40039 161.661 5.40039 158.9V124.971Z" fill="#175DE3"/>
</g>
<defs>
<filter id="filter0_d_1003_6" x="0.000391006" y="2.47955e-05" width="492.8" height="175.3" filterUnits="userSpaceOnUse" color-interpolation-filters="sRGB">
<feFlood flood-opacity="0" result="BackgroundImageFix"/>
<feColorMatrix in="SourceAlpha" type="matrix" values="0 0 0 0 0 0 0 0 0 0 0 0 0 0 0 0 0 0 127 0" result="hardAlpha"/>
<feOffset dx="3" dy="3"/>
<feGaussianBlur stdDeviation="4.2"/>
<feComposite in2="hardAlpha" operator="out"/>
<feColorMatrix type="matrix" values="0 0 0 0 0.0901961 0 0 0 0 0.364706 0 0 0 0 0.890196 0 0 0 0.25 0"/>
<feBlend mode="normal" in2="BackgroundImageFix" result="effect1_dropShadow_1003_6"/>
<feBlend mode="normal" in="SourceGraphic" in2="effect1_dropShadow_1003_6" result="shape"/>
</filter>
</defs>
</svg>
