<svg width="493" height="176" viewBox="0 0 493 176" fill="none" xmlns="http://www.w3.org/2000/svg">
<g filter="url(#filter0_d_1004_2)">
<path d="M476.714 63.2137C479.715 66.2143 481.4 70.284 481.4 74.5274V147.9C481.4 156.737 474.237 163.9 465.4 163.9H21.4004C12.5638 163.9 5.40039 156.737 5.40039 147.9V21.4C5.40039 12.5635 12.5638 5.40002 21.4004 5.40002H412.273C416.516 5.40002 420.586 7.08574 423.587 10.0863L476.714 63.2137Z" fill="#FFFAFA"/>
<path d="M481.4 44.329C481.4 48.7835 476.015 51.0143 472.865 47.8645L438.936 13.9356C435.786 10.7857 438.017 5.40002 442.471 5.40002H476.4C479.162 5.40002 481.4 7.6386 481.4 10.4V44.329Z" fill="#175DE3"/>
</g>
<defs>
<filter id="filter0_d_1004_2" x="0.000391006" y="2.47955e-05" width="492.8" height="175.3" filterUnits="userSpaceOnUse" color-interpolation-filters="sRGB">
<feFlood flood-opacity="0" result="BackgroundImageFix"/>
<feColorMatrix in="SourceAlpha" type="matrix" values="0 0 0 0 0 0 0 0 0 0 0 0 0 0 0 0 0 0 127 0" result="hardAlpha"/>
<feOffset dx="3" dy="3"/>
<feGaussianBlur stdDeviation="4.2"/>
<feComposite in2="hardAlpha" operator="out"/>
<feColorMatrix type="matrix" values="0 0 0 0 0.0901961 0 0 0 0 0.364706 0 0 0 0 0.890196 0 0 0 0.25 0"/>
<feBlend mode="normal" in2="BackgroundImageFix" result="effect1_dropShadow_1004_2"/>
<feBlend mode="normal" in="SourceGraphic" in2="effect1_dropShadow_1004_2" result="shape"/>
</filter>
</defs>
</svg>
